<svg xmlns="http://www.w3.org/2000/svg" width="5338" height="3056" viewBox="0 0 1412 809"><path d="M1101.7 244.45c-.303 4.733 2.437 10.845-.91 14.206-2.447 2.46-6.741-4.956-9.844-3.4-3.668 1.838-2.394 8.29-5.421 11.058-1.914 1.75-5.634-.561-7.727.97-5.497 4.02-10.843 8.866-13.99 14.91-1.338 2.573 2.478 5.704 1.795 8.524-.539 2.223-4.76 2.43-5.01 4.707-.466 4.247 4.242 8.312 3.123 12.436-1.315 4.85-7.1 7.258-9.645 11.594-2.627 4.478-6.574 9.397-5.677 14.51.852 4.858 9.577 5.897 10.118 10.798.447 4.054-6.388 5.566-7.893 9.356-.523 1.319 3.218 1.687 2.952 3.085-.772 4.06-6.166 6.952-5.646 11.062.568 4.496 4.083 9.317 8.4 10.69 3.117.993 6.046-7.872 8.202-5.41 2.897 3.309-3.527 9.248-1.45 13.129 1.199 2.239 4.83-2.821 7.299-2.223 5.59 1.355 9.728 6.963 15.428 7.749 2.7.373 4.355-6.074 6.7-4.69 6.726 3.973 8.69 13.636 15.354 17.72 3.38 2.07 7.976-1.878 11.85-1.05 3.073.655 4.72 5.723 7.826 5.264 2.4-.355.171-7.045 2.582-6.803 4.816.48 7.135 7.729 11.944 8.255 3.568.39 5.396-6.202 8.976-5.96 5.385.361 11.69 2.835 14.342 7.54 2.299 4.08-3.5 9.348-2.276 13.872.876 3.237 4.42 6.092 7.759 6.403 2.282.213 2.576-6.615 4.427-5.266 4.342 3.162 4.126 10.168 7.748 14.133 1.875 2.053 5.685 1.133 7.824 2.907 4.332 3.592 9.108 7.48 11.069 12.757.81 2.179-3.89 3.245-4.254 5.546-.268 1.693.972 4.577 2.682 4.401 3.743-.386 6.125-6.645 9.757-5.678 3.164.842 2.313 6.133 3.47 9.2-1.2 3.046-.514 8.044-3.597 9.135-3.836 1.359-7.657-4.592-11.635-3.734-2.083.448.885 4.827-.586 6.371-2.71 2.847-8.305 2.083-10.532 5.322-1.22 1.775 3.293 3.67 2.89 5.783-.38 2.002-3.837 2.055-4.73 3.89-.705 1.45.324 3.213.483 4.824-4.004.829-8.091 3.645-12.011 2.487-3.187-.942-3.52-5.826-6.153-7.85-.919-.704-2.783-.48-3.447.467-1.471 2.103.27 6.376-2.075 7.423-2.707 1.209-7.543-5.53-8.48-2.715-1.282 3.865 5.322 6.71 5.814 10.753.256 2.095-1.83 4.611-3.908 4.985-8.719 1.574-18.066-1.932-26.583.518-2.2.63 3.276 4.277 2.465 6.419-1.453 3.844-4.244 8.699-8.339 9.105-3.128.31-2.42-6.722-5.39-7.75-4.95-1.715-11.2 3.09-15.72.437-3.043-1.788 2.113-10.217-1.406-10.504-4.05-.333-6.891 5.747-7.27 9.794-.433 4.626 5.988 8.4 5.128 12.965-.568 3.012-6.205 1.715-8.319 3.938-2.891 3.037-2.742 8.408-5.977 11.082-1.615 1.333-4.14-.677-6.208-1.015-4.451.857-12.171-1.8-13.351 2.573l-2.522 9.352c-.384 1.422-2.51-1.55-3.765-2.32-1.653-5.478-.896-12.408-4.962-16.426-5.427-5.36-16.26-3.19-20.964-9.19-2.767-3.53 3.404-8.495 3.578-12.973.062-1.588-1.503-4.49-2.924-3.777-2.283 1.145-.931 7.828-3.319 6.913-3.195-1.224-1.458-6.984-3.671-9.594-1.441-1.699-5.222-.25-6.327-2.186-1.435-2.517 1.386-6.094.118-8.699-1.208-2.48-5.114-2.611-6.714-4.859-1.582-2.22-.256-6.085-2.342-7.837-2.25-1.89-6.24-3.045-8.7-1.44-3.21 2.091-6.419 4.185-9.629 6.277-2.897 1.89 6.144 3.533 8.298 6.24 2.182 2.746 4.266 6.1 4.308 9.605.02 1.635-3.533 1.1-4.169 2.608-.893 2.117 1.249 4.882.154 6.904-1.526 2.82-4.112 6.711-7.29 6.278-5.489-.749-10.25-4.968-13.866-9.166-1.256-1.458-.111-4.167 1.074-5.682 1.28-1.636 5.808-.749 5.574-2.813-.332-2.939-5.446-3.233-6.562-5.967-2.158-5.282-3.044-11.2-2.788-16.902.058-1.286 2.941-.29 3.612-1.385 1.045-1.706-.47-4.47.883-5.944 1.095-1.194 6.436.03 4.853-.302-6.676-1.405-15.2 1.623-20.266-2.948-3.545-3.199-2.386-11.104 1.177-14.282 2.722-2.428 6.636 5.415 10.089 4.241 2.747-.935 1.463-5.62 2.195-8.426.38-3.213-.117-6.661 1.135-9.64.36-.856 2.427 2.59 2.207 1.69-.866-3.54-4.539-6.437-4.259-10.07.175-2.31 3.581-2.934 5.371-4.4l3.153-12.233c-1.064-2.554-.812-6.26-3.195-7.656-2.493-1.464-6.983 3.067-8.656.704-1.512-2.14 5.492-3.815 4.696-6.31-2.001-6.268-8.65-10.06-11.778-15.85-2.673-4.947-3.624-10.65-5.438-15.976.154-1.47-.398-3.206.458-4.406 1.457-2.043 6.376-2.125 5.961-4.595-2.305-13.736-11.812-25.747-13.379-39.584-.34-2.987 6.37 2.22 8.986.75 2.306-1.296.787-5.763 2.858-7.404 7.594-6.02 10.135-5.26 9.901-8.499-.21-2.914-4.63-4.614-4.481-7.529.132-2.593 4.978-3.245 5.175-5.834.213-2.777-4.214-4.455-4.184-7.242.018-1.664 3.709-1.013 4.289-2.569 3.23-8.644 4.477-17.909 6.715-26.86 1.227.345 2.963.437 3.786-.528 1.769-2.07.73-6.243 3.114-7.55 3.54-1.943 8.508 1.071 12.086-.792 2.208-1.15.34-7.538 2.752-6.942 3.484.86 3.041 6.792 5.824 9.058 1.01.823 3.637-.002 3.696-1.307.371-8.115 1.205-17.03-2.535-24.24-2.216-4.274-10.316-2.09-13.151-5.98-4.883-6.703-3.793-16.492-8.294-23.453-2.135-3.302-8.975-1.859-10.437-5.51-1.468-3.668 1.51-7.983 3.721-11.252 1.154-1.706 3.679-3.247 5.625-2.573 5.386 1.862 8.824 7.715 14.25 9.46 1.834.59 2.808-3.693 4.706-3.366 4.336.748 7.419 5.027 11.662 6.195 3.829 1.053 8.245-1.216 11.916.297 3.165 1.304 3.714 6.584 7.01 7.507 3.986 1.117 8.388-3.61 12.248-2.11 2.083.809-1.8 4.92-.443 6.7 4.162 5.464 9.202 11.154 15.717 13.333 4.922 1.647 11.768-6.76 15.293-2.954 4.726 5.103-.329 14.06 1.269 20.832.457 1.94.816-4.23 2.349-5.5 1.389-1.153 3.545-.974 5.345-.884 2.28.114 5.065-.105 6.687 1.498 1.797 1.778-.341 7.258 2.188 7.268z" clip-rule="evenodd" fill="#c9c9c9" fill-rule="evenodd" image-rendering="optimizeQuality" shape-rendering="geometricPrecision" stroke="#fff" stroke-linejoin="bevel" stroke-width="2.59"/><path d="M1099.5 237.18c1.797 1.777-.34 7.258 2.188 7.268m-8.874-8.766c2.28.114 5.065-.106 6.686 1.498m-12.032-.615c1.39-1.152 3.546-.973 5.346-.883m-7.695 6.384c.458 1.94.816-4.23 2.349-5.501m-3.617-15.331c4.726 5.103-.33 14.06 1.268 20.832m-16.562-17.878c4.922 1.647 11.768-6.76 15.293-2.954m-31.01-10.378c4.162 5.463 9.202 11.153 15.717 13.332m-15.275-20.034c2.083.81-1.799 4.921-.442 6.702m-11.805-4.591c3.987 1.117 8.389-3.61 12.248-2.11m-19.258-5.397c3.165 1.304 3.714 6.584 7.01 7.507m-18.927-7.804c3.83 1.054 8.246-1.216 11.916.297m-23.58-6.492c4.338.748 7.42 5.027 11.664 6.195m-16.37-2.83c1.836.59 2.81-3.692 4.707-3.365m-18.955-6.094c5.386 1.863 8.824 7.715 14.25 9.46m-19.875-6.887c1.154-1.706 3.679-3.247 5.625-2.573m-9.346 13.826c-1.468-3.668 1.51-7.983 3.721-11.253m6.716 16.763c-2.135-3.302-8.975-1.859-10.437-5.51m18.731 28.963c-4.883-6.703-3.793-16.492-8.294-23.453m21.444 29.432c-2.215-4.273-10.316-2.089-13.15-5.98m15.685 30.221c.371-8.115 1.205-17.03-2.535-24.24m-1.161 25.547c1.01.823 3.637-.002 3.696-1.306m-9.52-7.751c3.484.86 3.042 6.791 5.824 9.057m-8.576-2.116c2.208-1.15.34-7.538 2.752-6.941m-14.838 7.732c3.54-1.941 8.508 1.072 12.086-.79m-15.2 8.341c1.769-2.07.73-6.243 3.114-7.55m-6.9 8.077c1.227.346 2.963.438 3.786-.527" clip-rule="evenodd" fill="#999298" fill-rule="evenodd" image-rendering="optimizeQuality" shape-rendering="geometricPrecision" stroke="#fff" stroke-linejoin="bevel" stroke-width="3.453"/><path d="M1318.4 509.35c-2.766-.71-8.19.714-8.303-2.125l-.364-9.155c-.138-3.476-6.764-2.584-9.135-5.14-3.323-3.582-2.868-10.742-7.376-12.655-5.688-2.414-12.475 3.147-18.482 1.677-3.975-.973-5.138-6.868-8.937-8.39-1.908-.763-3.559 2.742-5.609 2.567-1.296-.11-.865-3.377-2.155-3.238-9.399 1.003-18.23 7.466-27.62 6.4-3.666-.415-1.362-8.17-4.524-10.05-3.412-2.029-7.95.175-11.926.266-1.156-3.048-.306-8.306-3.467-9.143-3.628-.96-6.006 5.26-9.745 5.643-1.708.175-2.947-2.691-2.68-4.374.365-2.286 5.059-3.345 4.25-5.51-1.959-5.243-6.73-9.107-11.056-12.676-2.137-1.763-5.942-.848-7.815-2.889-3.618-3.94-3.403-10.902-7.74-14.043-1.849-1.34-2.142 5.444-4.422 5.233-3.335-.309-6.875-3.147-7.75-6.363-1.222-4.495 4.57-9.73 2.274-13.783-2.65-4.676-8.947-7.134-14.326-7.494-3.576-.239-5.402 6.312-8.966 5.923-4.804-.523-7.12-7.725-11.93-8.203-2.408-.24-.182 6.408-2.579 6.76-3.103.457-4.748-4.579-7.818-5.231-3.869-.822-8.46 3.102-11.837 1.044-6.656-4.058-8.618-13.659-15.337-17.608-2.342-1.376-3.995 5.031-6.692 4.66-5.693-.781-9.827-6.353-15.41-7.7-2.465-.594-6.093 4.434-7.29 2.21-2.076-3.857 4.341-9.759 1.447-13.047-2.153-2.446-5.079 6.363-8.193 5.377-4.31-1.365-7.822-6.156-8.39-10.623-.52-4.083 4.87-6.957 5.64-10.992.266-1.389-3.471-1.755-2.949-3.065 1.504-3.767 8.331-5.27 7.884-9.297-.54-4.87-9.255-5.903-10.106-10.73-.895-5.081 3.047-9.97 5.671-14.418 2.542-4.31 8.32-6.703 9.635-11.52 1.117-4.1-3.586-8.139-3.12-12.359.25-2.263 4.466-2.468 5.004-4.677.682-2.802-3.13-5.913-1.793-8.47 3.143-6.007 8.483-10.822 13.974-14.817 2.09-1.521 5.807.776 7.718-.963 3.024-2.751 1.751-9.162 5.415-10.989 3.1-1.545 7.388 5.823 9.834 3.38 3.342-3.34.605-9.413.908-14.117 5.012.02 8.374-5.818 13.197-7.157 6.41-1.78 13.218-2.377 19.86-2.035 2.232.115 3.716 4.166 5.794 3.359 5.392-2.095 10.32-6.057 13.513-10.86 1.587-2.384-3.458-8.38-.59-8.565 5.26-.336 11.794 2.867 13.78 7.725 1.903 4.653-5.69 9.38-4.755 14.316.66 3.487 7.104 3.073 8.66 6.262 1.388 2.848 1.152 7.108-.986 9.457-1.882 2.068-6.071-.75-8.378.837-2.006 1.38-.627 5.476-2.684 6.778-6.727 4.256-19.198 1.591-22.168 8.953-2.431 6.024 7.775 10.518 12.51 14.985 1.453 1.37 3.7 2.68 5.62 2.124 1.777-.513 1.185-4.489 3.026-4.633 2.356-.185 4.483 2.05 5.888 3.94 4.289 5.771 7.694 12.181 10.89 18.621 1.157 2.33.09 5.845 2.086 7.522 2.665 2.239 7.319.637 10.114 2.712 1.45 1.076-.372 3.952.765 5.356 2.286 2.824 5.236 5.742 8.81 6.457 3.675.736 7.839-.437 10.962-2.495 2.952-1.945 3.266-6.49 6.016-8.704 2.916-2.347 6.584-4.272 10.332-4.454 3.123-.151 6.131 5.33 8.687 3.54 2.598-1.82 1.906-7.119-.195-9.49-1.974-2.228-6.382.741-8.932-.81-1.334-.81-1.013-3.425-.074-4.662 1.582-2.087 4.116-4.401 6.722-4.1 4.195.484 8.508 2.811 11.056 6.156 2.978 3.91 1.322 10.205 4.353 14.073 2.404 3.068 6.704 5.269 10.603 4.999 2.2-.154 1.005-4.79 2.887-5.923 1.961-1.18 5.22-1.536 6.88.036 2.243 2.122-.029 7.187 2.551 8.892 3.61 2.386 9.33-1.042 12.934 1.347 2.184 1.447-.607 5.627.862 7.791 2.163 3.189 5.488 5.972 9.207 7.037 1.366.392-.102-3.275.938-4.428 1.162-1.288 4.533-.274 4.827-1.975.314-1.809-5.62-3.841-3.784-4.027 6.893-.7 14.117.052 20.658 2.325 6.52 2.265 10.983 8.846 17.554 10.957 2.327.747 5.395-1.083 6.598-3.2.93-1.635-3.209-4.218-1.72-5.371 1.936-1.5 6.287-1.175 7.295 1.053 1.813 4.006-2.548 9.103-.864 13.168 1.348 3.253 8.41 2.435 8.788 5.933.464 4.296-7.745 6.71-6.971 10.966 2.22 12.204 7.228 24.454 15.169 34.022 3.502 4.22 11.317.93 16.093 3.638 1.995 1.131.494 4.813 1.94 6.59 1.1 1.353 3.173 1.793 4.923 1.834 4.516.106 10.961-5.118 13.477-1.39 6.388 9.46 4.308 22.47 8.038 33.245 1.025 2.962 5.68 4.155 5.996 7.272.328 3.236-3.92 5.52-4.376 8.745-.159 1.117 3.887 1.307 2.875 1.816-2.535 1.275-5.93-.268-8.472 1.001-4.8 2.397-7.553 8.816-12.857 9.669-4.968.798-9.087-5.208-14.115-5.322-4.343-.099-7.805 4.737-12.151 4.717-2.392-.011-2.946-4.51-5.32-4.801-3.12-.384-6.292 1.331-8.927 3.036-1.697 1.098-3.3 2.977-3.457 4.99-.197 2.514 3.542 4.856 2.498 7.153-2.149 4.729-7.834 6.994-10.854 11.23-1.55 2.172-1.182 5.306-2.573 7.587-1.266 2.08-2.875 4.395-5.199 5.161-6.14 2.025-8.689-2.153-9.639-.266z" clip-rule="evenodd" fill="#c9c9c9" fill-rule="evenodd" image-rendering="optimizeQuality" shape-rendering="geometricPrecision" stroke="#fff" stroke-linejoin="bevel" stroke-width="2.58"/><path d="M1058.6 562.98c-1.95 3.375-6.138 6.243-5.849 10.125.472 6.31 6.627 11.09 7.888 17.295.392 1.932-5.19 4.064-3.381 4.867 3.541 1.573 9.234-4.307 11.574-1.229 2.626 3.456-.23 9.237-2.854 12.694-1.689 2.223-6.466-.333-8.2 1.858-1.887 2.385 1.296 6.634-.482 9.105-1.245 1.731-5.08-1.208-6.408.464-1.185 1.493 1.76 3.557 1.704 5.464-.036 1.22-2.943 2.378-1.96 3.11 1.967 1.466 4.941 1.488 7.323.883 4.963-1.261 8.915-6.893 14.003-6.315 3.143.358 3.906 5.284 4.348 8.403.505 3.566-3.432 7.562-1.634 10.684 1.13 1.962 4.266-3.49 6.324-2.536 2.953 1.368 2.49 6.864 5.532 8.024 4.141 1.58 8.874-1.325 13.283-.843 1.773.194 4.046 1.108 4.553 2.81.83 2.782-3.26 6.658-1.135 8.647 2.212 2.07 6.283-2.558 9.024-1.263 3.928 1.858 4.435 8.958 8.723 9.664 4.817.792 8.478-5.586 13.338-6.024 1.76-.16 1.08 3.757 2.636 4.591 2.412 1.292 6.575-1.051 8.135 1.19 1.589 2.28-3.626 6.274-1.6 8.18 3.47 3.265 10.328.27 13.914 3.404 5.056 4.418 6.66 11.646 9.989 17.47-8.214 4.9-15.122 13.664-24.644 14.702-6.52.712-10.25-10.375-16.803-10.196-5.228.143-6.745 8.218-11.199 10.955-2.026 1.246-5.105 1.556-7.146.329-3.925-2.36-5.157-8.068-9.228-10.165-8.426-4.34-17.693-9.468-27.135-8.564-5.016.48-5.069 9.018-9.103 12.029-2.318 1.73-6.735-.992-8.618 1.203-3.847 4.481-4.007 12.405-3.695 13.142.313.736 1.505 1.652.934 2.212-2.92 2.861-7.393 3.88-10.192 6.863-.77.82 1.238 2.377.63 3.326-2.88 4.504-8.562 7.157-10.525 12.13-1.006 2.546 3.358 5.13 2.661 7.78-.518 1.974-4.78.92-5.449 2.85-2.2 6.355-.663 13.546-2.472 20.02-.586 2.098-2.324 4.34-4.463 4.796-2.043.435-5.139-.614-5.702-2.62-1.413-5.034 1.402-10.516.554-15.676-.85-5.174-.641-12.856-5.559-14.718-6.889-2.608-14.359 5.363-21.67 4.411-6.12-.796-9.986-7.867-15.985-9.321-3.092-.75-6.672 5.458-8.975 3.266-4.473-4.258-1.286-13.485-5.973-17.506-3.448-2.957-9.363 2.22-13.646.683-4.795-1.722-6.818-8.389-11.713-9.794-2.197-.63-2.293 4.866-4.568 5.109-9.418 1.006-10.47-6.74-11.746-3.377-1.747 4.602-2.55 9.684-5.242 13.814-3.206 4.918-7.546 9.117-12.114 12.822-1.029.833-2.873.971-3.98.24-1.94-1.28-1.836-5.287-4.142-5.6-1.704-.232-.23 4.712-1.95 4.768-16.52.54-33.248-.079-49.498-3.097-8.063-1.497-15.264-6.151-22.36-10.246-3.856-2.226-7.912-4.787-10.238-8.571-.951-1.55 2.904-3.705 1.803-5.152-1-1.312-3.418 2.053-4.828 1.188-2.123-1.304-1.561-5.26-3.747-6.455-1.608-.878-3.792 2.55-5.297 1.507-2.299-1.594-1.227-5.995-3.509-7.612-2.147-1.522-5.791 1.091-7.9-.486-1.486-1.112 1.571-4.948-.182-5.554-4.068-1.404-9.002-.823-12.884 1.035-2.877 1.377-2.517 6.753-5.539 7.789-4.386 1.505-9.684.85-13.88-1.122-6.35-2.984-10.18-9.947-16.43-13.129-5.869-2.986-14.057-2.724-15.888-3.332l9.788-12.867c1.863-1.245 3.414-4.266 5.587-3.73 3.252.804 3.965 7.44 7.273 6.919 2.979-.469.606-6.606 2.918-8.529 2.379-1.976 6.238-2.505 9.175-1.523 2.795.935 3.129 7.586 5.896 6.57 3.833-1.406 2.711-8.033 5.686-10.817 1.776-1.663 5.292.232 7.213-1.263 2.696-2.098 2.416-7.165 5.498-8.637 3.573-1.705 8.644 2.592 11.891.329 2.675-1.865-1.096-7.632 1.458-9.648 1.96-1.548 4.55 4.071 6.848 3.087 2.433-1.042 1.139-5.48 3.032-7.318 1.601-1.556 4.407-2.826 6.44-1.9 1.752.796.244 4.152 1.561 5.553 1.881 2 4.639 3.143 7.293 3.867 1.36.37 3.178.256 4.165-.741 1.575-1.59.423-5.989 2.655-6.153 4.076-.298 7.108 4.391 11.121 5.139 2.286.426 4.636-.821 6.742-1.8 2.166-1.006 5.16-1.814 5.89-4.078.624-1.938-4.569-4.373-2.823-5.427 4.67-2.82 11.506.174 16.177-2.638 2.427-1.46.135-6.06 1.914-8.26 1.193-1.475 4.28.307 5.61-1.045 2.535-2.572 4.39-6.08 4.908-9.643.291-2.003-.728-4.97-2.705-5.448-2.07-.501-3.22 3.349-5.348 3.506-1.365.1 2.726-1.962 2.437-3.289-.506-2.318-5.448-3.499-4.39-5.625 1.832-3.682 7.941-3.345 10.472-6.586 1.19-1.524.541-4.387-.848-5.735-2.097-2.034-7.424-.264-8.233-3.069-1.251-4.337.872-9.441 3.575-13.06 1.518-2.034 7.382.84 7.443-1.692.084-3.443-7.383-3.994-7.221-7.437.206-4.337 6.108-6.38 8.071-10.255.607-1.196-1.94-3.108-.878-3.934 5.918-4.605 15.084-4.924 19.774-10.762 2.395-2.982-1.347-7.525-2.067-11.278-.998-5.202-3.46-10.306-3.094-15.583.272-3.899 5.524-6.79 4.927-10.653-.579-3.74-7.147-4.512-7.852-8.228-.425-2.239 4.717 3.035 6.625 1.783 3.51-2.301 7.481-6.46 6.786-10.59-.699-4.155-8.47-3.946-9.91-7.907-1.204-3.316 2.266-6.682 3.4-10.022 1.233.94 2.5 3.807 3.695 2.825 2.006-1.648.591-5.332 1.998-7.504.713-1.098 2.493-1.789 3.715-1.314 1.338.52.857 3.721 2.289 3.64 3.193-.177 5.405-4.019 8.592-4.237 3.744-.258 7.867 5.135 10.882 2.908 3.392-2.505.086-8.72 2.03-12.45.777-1.497 3.283-.985 4.974-1.003 8.637-.084 17.405-.797 25.906.706 7.894 1.399 15.145 5.265 22.718 7.897-.735 2.802.553 7.478-2.201 8.411-3.46 1.172-7.384-6.657-10.113-4.233-3.571 3.172-4.733 11.064-1.18 14.256 5.08 4.563 13.623 1.54 20.315 2.943 1.587.332-3.767-.89-4.865.3-1.356 1.472.163 4.232-.884 5.935-.673 1.093-3.563.099-3.621 1.382-.257 5.692.631 11.6 2.795 16.872 1.118 2.73 6.244 3.023 6.577 5.956.235 2.061-4.305 1.176-5.587 2.81-1.188 1.512-2.336 4.215-1.076 5.67 3.623 4.191 8.397 8.403 13.898 9.15 3.186.433 5.779-3.452 7.308-6.266 1.097-2.02-1.05-4.779-.154-6.893.637-1.506 4.198-.97 4.178-2.603-.042-3.5-2.131-6.847-4.318-9.587-2.159-2.703-11.221-4.344-8.317-6.23l9.65-6.266c2.467-1.602 6.467-.448 8.722 1.437 2.09 1.75.763 5.607 2.348 7.824 1.604 2.244 5.519 2.374 6.73 4.85 1.27 2.6-1.556 6.172-.118 8.684 1.107 1.933 4.897.487 6.342 2.183 2.218 2.604.477 8.354 3.68 9.577 2.393.912 1.038-5.759 3.326-6.901 1.425-.712 2.994 2.184 2.932 3.77-.175 4.47-6.36 9.425-3.587 12.949 4.717 5.99 15.575 3.823 21.015 9.175 4.075 4.01 3.317 10.928 4.974 16.396z" clip-rule="evenodd" fill="#c9c9c9" fill-rule="evenodd" image-rendering="optimizeQuality" shape-rendering="geometricPrecision" stroke="#fff" stroke-linejoin="bevel" stroke-width="2.591"/><path d="M729.49 676.47c1.854-1.244 3.397-4.263 5.56-3.727 3.235.803 3.946 7.434 7.238 6.914 2.964-.469.602-6.602 2.903-8.523 2.367-1.975 6.208-2.504 9.13-1.523 2.781.935 3.114 7.58 5.867 6.566 3.815-1.405 2.698-8.027 5.659-10.81 1.767-1.662 5.266.232 7.178-1.262 2.682-2.097 2.404-7.16 5.471-8.63 3.555-1.705 8.602 2.59 11.833.328 2.662-1.864-1.091-7.626 1.45-9.641 1.952-1.546 4.528 4.069 6.815 3.085 2.422-1.041 1.134-5.476 3.018-7.313 1.593-1.555 4.385-2.823 6.408-1.899 1.744.796.242 4.15 1.554 5.55 1.872 1.999 4.615 3.14 7.257 3.863 1.353.37 3.162.256 4.145-.74 1.567-1.589.42-5.984 2.642-6.148 4.056-.298 7.073 4.387 11.067 5.135 2.275.425 4.613-.82 6.709-1.798 2.155-1.006 5.134-1.813 5.86-4.076.622-1.936-4.545-4.37-2.808-5.422 4.648-2.818 11.449.173 16.098-2.636 2.415-1.46.135-6.056 1.905-8.254 1.187-1.475 4.258.306 5.583-1.045 2.522-2.57 4.368-6.076 4.883-9.636.29-2.002-.724-4.967-2.691-5.444-2.061-.5-3.205 3.346-5.322 3.503-1.358.1 2.712-1.96 2.425-3.286-.504-2.317-5.421-3.497-4.37-5.62 1.825-3.681 7.904-3.344 10.422-6.582 1.184-1.523.539-4.385-.844-5.731-2.086-2.033-7.387-.264-8.192-3.067-1.246-4.334.868-9.434 3.557-13.05 1.51-2.033 7.346.84 7.407-1.69.083-3.441-7.348-3.991-7.186-7.432.204-4.334 6.078-6.376 8.032-10.247.603-1.196-1.93-3.106-.874-3.932 5.89-4.601 15.01-4.92 19.677-10.754 2.384-2.98-1.34-7.52-2.057-11.27-.993-5.198-3.443-10.299-3.079-15.572.27-3.896 5.497-6.785 4.903-10.646-.576-3.736-7.112-4.508-7.814-8.222-.423-2.237 4.694 3.033 6.593 1.783 3.492-2.3 7.445-6.457 6.753-10.582-.695-4.153-8.43-3.944-9.861-7.902-1.199-3.314 2.255-6.677 3.382-10.015-3.041-3.285-5.256-7.615-9.13-9.85-4.933-2.844-11.627-1.74-16.39-4.862-3.4-2.228-3.16-8.132-6.642-10.225-5.546-3.337-12.802-2.507-18.75-5.056-1.354-.58-.713-4.355-2.108-3.885l-7.697 2.598c-3.602 1.215-4.552-6.098-6.829-9.146-3.685-.472-7.754.278-11.063-1.414-2.365-1.209-2.19-7.793-4.54-6.554-3.672 1.934-2.326 8.165-4.816 11.486-.798 1.064-4.234-1.048-3.994.263l.776 4.24c.485 2.644-5.32 1.857-7.96 1.347-2.007-.386-3.207-2.544-4.81-3.813-3.321-2.161-8.257-2.906-9.97-6.477-1.251-2.609 2.823-5.275 2.951-8.162.054-1.213-1.557 2.878-2.698 2.46-3.592-1.316-5.664-5.448-9.23-6.837-2.162-.844-5.47 2.327-6.951.536-1.59-1.922 3.141-5.69 1.302-7.37-2.238-2.047-6.355 1.53-9.1.24-2.938-1.38-3.618-5.578-6.259-7.465-2.794-1.998-6.136-3.703-9.572-3.845-5.029-.207-9.905 3.829-14.839 2.833-2.424-.489-1.62-4.945-3.503-6.546-4.862-4.13-10.807-6.794-16.21-10.188l-.041.08c-5.4 3.575-12.697 5.284-16.201 10.732-1.617 2.515 3.927 4.96 4.195 7.94.153 1.7-1.417 3.874-3.116 4.078-2.948.352-5.802-3.94-8.496-2.692-2.641 1.224-.733 6.632-3.233 8.131-4.065 2.439-9.614.564-14.049 2.243-2.795 1.06-3.992 5.16-6.935 5.713-1.496.28-.794-3.59-2.265-3.967-1.887-.484-4.473.323-5.517 1.972-1.863 2.945-.608 7.126-2.197 10.227-1.918 3.743-6.787 5.72-8.038 9.741-.937 3.009-.313 7.236 2.138 9.215 2.565 2.07 7.675-1.965 9.884.482 2.973 3.295 5.094 9.599 2.374 13.111-3.23 4.171-11.012.757-15.394 3.7-2.102 1.41 1.246 7.286-1.281 7.497-3.978.332-6.046-6.38-10.034-6.556-4.606-.202-8.082 5.139-12.676 5.553-5.612.506-11.308-4.693-16.657-2.919-2.538.842 4.068 5.78 2.222 7.715-2.318 2.429-7.493-1.644-10.07.513-2.336 1.954-.902 6.03-1.354 9.046l.01-.135c.907 2.669 4.04 5.517 2.72 8.007-1.424 2.685-8.099.066-8.589 3.066-.643 3.938 6.66 6.108 6.44 10.09-.669 12.028-9.036 22.971-8.948 35.018.028 3.755 8.276 2.801 9.252 6.426.77 2.865-5.343 3.907-5.677 6.855-.327 2.875 2.112 5.52 4.023 7.693 3.59 4.08 6.902 9.726 12.234 10.782 3.872.766 6.039-6.638 9.979-6.382 3.395.22 3.946 5.876 6.947 7.48 2.613 1.395 6.593-.977 8.836.956 1.56 1.344.777 5.169-.541 5.74-1.346.585-7.122-.193-5.38.182 3.459.746 7.653-.705 10.531 1.355 2.385 1.707.92 6.168 2.943 8.29 1.426 1.496 4.217 2.064 6.086 1.182 2.417-1.14 2.212-6.33 4.885-6.36 5.054-.06 9.73 3.233 13.864 6.139.865.607-1.798 3.133-.743 3.082 6.313-.305 13.352-7.539 18.548-3.94 4.48 3.102-3.282 11.564-.649 16.334 3.882 7.033 11.143 12.046 18.314 15.667 1.716.866 1.241-4.738 3.161-4.822 4.617-.203 8.63 4.34 13.245 4.101 3.585-.185 5.9-4.444 9.394-5.27 1.666-.393 4.107.347 4.76 1.93.678 1.642-2.9 3.503-1.907 4.976 1.46 2.168 5.303 1.234 7.259 2.967 1.497 1.327 2.574 3.546 2.33 5.531-.252 2.043-1.664 4.383-3.629 5-2.204.69-5.217-3.525-6.706-1.758-2.366 2.807.46 7.62-1.055 10.965-.706 1.561-3.94.41-4.776 1.906-.675 1.21 2.285 2.674 1.561 3.856-2.321 3.787-8.91 4.86-9.594 9.25-.414 2.666 5.937-1.191 8.084.443 1.41 1.073-1.951 4.195-.556 5.288 3.485 2.728 8.978 1.625 12.612 4.15 1.524 1.06.792 3.627 1.188 5.44l.03.057z" clip-rule="evenodd" fill="#c9c9c9" fill-rule="evenodd" image-rendering="optimizeQuality" shape-rendering="geometricPrecision" stroke="#fff" stroke-linejoin="bevel" stroke-width="2.583"/><path d="M1318.1 510.85c-2.75-.714-8.144.719-8.256-2.138l-.362-9.213c-.137-3.498-6.726-2.6-9.084-5.172-3.304-3.606-2.851-10.81-7.334-12.735-5.656-2.43-12.405 3.166-18.378 1.686-3.953-.978-5.11-6.91-8.887-8.442-1.897-.767-3.538 2.76-5.577 2.583-1.288-.11-.86-3.398-2.143-3.258-9.346 1.009-18.128 7.513-27.464 6.44-3.645-.417-1.354-8.22-4.499-10.114-3.392-2.042-7.904.176-11.859.268-1.19 3.045-.51 8.043-3.573 9.134-3.81 1.359-7.604-4.592-11.556-3.734-2.068.448.88 4.826-.581 6.37-2.692 2.848-8.249 2.083-10.461 5.322-1.211 1.775 3.27 3.67 2.87 5.783-.377 2.002-3.811 2.054-4.697 3.889-.7 1.45.321 3.214.479 4.824-3.977.83-8.036 3.645-11.93 2.488-3.166-.943-3.496-5.826-6.112-7.85-.912-.705-2.764-.48-3.423.467-1.461 2.103.269 6.376-2.061 7.423-2.689 1.208-7.492-5.53-8.422-2.715-1.274 3.864 5.285 6.71 5.774 10.753.254 2.094-1.818 4.61-3.882 4.985-8.66 1.573-17.944-1.932-26.403.517-2.184.631 3.254 4.277 2.449 6.418-1.443 3.845-4.215 8.699-8.283 9.105-3.107.31-2.403-6.721-5.354-7.749-4.916-1.715-11.125 3.09-15.613.436-3.022-1.787 2.099-10.216-1.396-10.503-4.023-.332-6.845 5.747-7.222 9.795-.43 4.625 5.948 8.399 5.094 12.964-.565 3.01-6.164 1.714-8.263 3.937-2.872 3.037-2.723 8.408-5.937 11.08-1.604 1.334-4.111-.676-6.166-1.014-4.42.857-12.09-1.8-13.261 2.573l-2.505 9.351c-.38 1.422-2.492-1.549-3.739-2.32-1.932 3.38-6.082 6.253-5.795 10.142.467 6.321 6.567 11.109 7.816 17.325.388 1.935-5.143 4.07-3.35 4.875 3.509 1.576 9.149-4.314 11.467-1.23 2.603 3.461-.227 9.252-2.828 12.716-1.673 2.226-6.406-.335-8.125 1.86-1.87 2.389 1.285 6.646-.477 9.12-1.234 1.735-5.034-1.209-6.35.466-1.174 1.495 1.744 3.562 1.689 5.473-.035 1.223-2.916 2.382-1.942 3.116 1.948 1.468 4.896 1.49 7.255.884 4.918-1.263 8.834-6.905 13.875-6.326 3.115.358 3.871 5.293 4.309 8.417.5 3.572-3.401 7.575-1.62 10.702 1.12 1.966 4.228-3.495 6.267-2.54 2.926 1.37 2.468 6.876 5.482 8.038 4.103 1.582 8.792-1.328 13.16-.844 1.757.194 4.01 1.11 4.512 2.814.822 2.787-3.23 6.67-1.124 8.662 2.19 2.074 6.225-2.563 8.94-1.265 3.892 1.861 4.395 8.974 8.644 9.68 4.773.793 8.4-5.595 13.216-6.034 1.744-.16 1.07 3.764 2.612 4.599 2.39 1.294 6.515-1.053 8.06 1.191 1.574 2.286-3.592 6.286-1.585 8.195 3.438 3.27 10.234.27 13.787 3.41 5.01 4.426 6.598 11.666 9.898 17.499 3.455-2.084 5.696 4.114 12.324-2.434 6.271-6.197 7.773-16.977 15.214-21.684 6.243-3.95 17.048 3.574 22.044-1.884 6.468-7.066 3.707-18.854 5.559-28.28.296-1.509.914-3.233 14.385-5.134 2.407-.34 4.618 2.69 6.984 2.127 3.75-.89 7.44-3.089 9.832-6.128 4.053-5.15 7.552-11.154 8.843-17.596.888-4.427-4.402-11.257-2.472-14.152 1.93-2.895 5.191-5.249 5.785-8.677 1.589-9.181-1.475-18.87.567-27.957.787-3.505 5.757-4.587 7.46-7.742.871-1.612-1.917-4.646-.305-5.504 12.55-6.684 27.584-8.08 39.718-15.495 4.241-2.593 6.2-8.248 7.153-13.152.595-3.057-3.72-7.174-2.868-8.887z" clip-rule="evenodd" fill="#c9c9c9" fill-rule="evenodd" image-rendering="optimizeQuality" shape-rendering="geometricPrecision" stroke="#fff" stroke-linejoin="bevel" stroke-width="2.581"/><path d="M730.35 677.23c-1.904.198-4.849-1.096-5.716.599-.977 1.914 3.021 3.974 2.34 6.013-.94 2.815-4.281 4.15-6.425 6.226-1.834-.607-4.2-.4-5.503-1.815-1.673-1.819-.962-5.054-2.551-6.942-1.847-2.193-4.475-3.905-7.244-4.687-3.053-.863-6.581 1.106-9.533-.055-5.931-2.335-10.14-8.196-16.229-10.091-2.942-.916-5.957 2.832-8.985 2.232-2.596-.515-3.979-6.932-5.974-5.206-3.441 2.977.126 10.18-3.273 13.204-2.483 2.209-6.617-2.087-9.897-1.481-4.213.779-8.38 8.253-11.628 5.471-4.269-3.656 2.679-12.978-1.51-16.72-4.725-4.219-12.972.386-19.008-1.6-1.494-.493 1.232-3.79-.055-4.683-2.65-1.84-6.274-1.932-9.514-1.951-1.904-.012-4.47.203-5.406 1.852-2.416 4.254-3.714 9.305-3.706 14.192.012 7.406 3.863 14.506 3.765 21.916-.044 3.322-3.914 5.753-4.19 9.068-.294 3.526 3.124 6.816 2.574 10.314-.842 5.352-6.398 9.488-6.557 14.904-.087 3.006 5.786 3.856 5.912 6.861.106 2.507-2.879 5.43-5.401 5.288-6.269-.353-8.874-2.707-11.533-3.707-6.193-2.328-14.01-6.044-19.69-2.667-4.147 2.467 2.378 10.234-.022 14.401-2.972 5.16-10.309 6.332-14.419 10.655-2.073 2.18-2.35 5.539-3.567 8.293-1.22 2.766-.137 22.227-.363 23.66-.4 2.526-2.12 5.11-4.387 6.335-2.33 1.26-5.845 1.93-7.964.341-2.576-1.931-1.136-6.81-3.53-8.956-1.28-1.147-3.618 2.292-5.022 1.292-2.11-1.503-.535-7.256-3.125-7.09-4.32.277-5.971 7.23-10.248 7.938-4.281.708-8.8-1.684-12.316-4.211-3.4-2.445-4.037-7.705-7.513-10.041-1.552-1.043-4.841-.441-5.477 1.311-.767 2.112 3.113 3.941 2.76 6.161-.668 4.212-2.071 9.074-5.577 11.547-2.345 1.653-6.006-3.08-8.478-1.624-2.066 1.216.967 5.54-.84 7.118-1.56 1.36-4.316-1.962-6.157-1.007-2.815 1.46-3.169 5.958-6.028 7.334-1.21.581-.303-2.983-1.393-3.76-3.487-2.486-7.398-4.764-11.621-5.526-14.381-2.598-29.276-1.686-43.622-4.456-1.289-.248 1.424-2.926.526-3.87-1.432-1.508-4.783-.18-5.984-1.874-.935-1.32 2.311-3.368 1.343-4.661-1.807-2.415-8.444-1.285-8.026-4.266.465-3.32 6.85-1.803 9.22-4.188 1.545-1.556 2.37-4.502 1.328-6.426-.855-1.579-4.036.272-5.337-.972-2.7-2.584-2.73-7.393-5.732-9.62-2.914-2.161-7.73-.328-10.622-2.52-5.29-4.008-5.858-6.808-8.934-9.485-3.075-2.678-5.516-6.328-9.227-8.034-3.803-1.749-9.726 1.25-12.433-1.927-4.026-4.728-1.647-12.545-4.556-18.023-.944-1.78-4.76.065-5.871-1.62-3.129-4.743-1.192-12.629-5.767-16.016-3.8-2.812-10.66 4.402-14.183 1.247-5.728-5.13-4.038-15.079-8.35-21.428-.957-1.408-2.867 3.865-4.256 2.87-3.328-2.386-3.11-7.987-6.36-10.477-1.488-1.14-2.989 1.087-6.13.905-.576-5.353-2.51-10.73-1.733-16.05.574-3.927 2.746-7.765 5.621-10.52.913-.876 2.093 2.686 3.2 2.065 2.42-1.356 5.072-3.896 4.956-6.648-.199-4.714-5.138-8.271-5.778-12.944-.187-1.366 3.584-.395 3.773-1.756.531-3.836-4.387-8.455-1.932-11.461 1.933-2.367 5.64 4.066 8.603 3.276 3.167-.843 3.628-5.78 6.518-7.312 1.964-1.041 5.262 2.013 6.673.306 1.817-2.2-1.172-5.996.12-8.53 1.043-2.046 6.006-1.164 5.99-3.453-.03-4.125-6.765-6.736-6.086-10.804.697-4.177 7.7-4.783 9.34-8.688.71-1.69-4.187.896-5.537-.358-1.68-1.56-3.202-4.674-1.94-6.584 1.263-1.91 5.773 1.162 6.852-.85 1.523-2.838-2.919-6.799-1.268-9.558 1.71-2.858 6.875-1.521 9.281-3.833 2.446-2.348 4.527-5.83 4.279-9.194-.437-5.925-4.943-10.925-6.18-16.736-.421-1.98.232-4.233 1.36-5.91 1.215-1.808 5.31-1.753 5.245-3.92-.077-2.637-4.835-3.168-5.52-5.716-.884-3.286 2.161-6.852 1.25-10.127-.386-1.385-4.209.674-4.284-.76-.167-3.162 2.522-5.817 3.78-8.723l-.102.378c4.109-1.453 7.975-4.597 12.324-4.356 2.125.117 1.47 5.155 3.598 5.248 2.382.105 2.848-4.678 5.222-4.852 2.704-.198 5.382 1.87 7.098 3.95.638.773-2.772 1.786-1.923 2.329 2.405 1.536 5.674 2.69 8.398 1.807 2.2-.713 1.651-4.91 3.795-5.763 3.267-1.3 7.825 2.227 10.564.036 2.803-2.244-.011-7.836 2.44-10.45 2.463-2.626 7.176-4.914 10.352-3.207 2.842 1.527-.164 6.728 1.412 9.531.83 1.475 3.15 1.599 4.853 1.602 8.286.017 17.097 1.453 24.816-1.537 3.251-1.26 1.45-7.223 3.966-9.617 2.044-1.946 5.593-2.956 8.259-2.011 3.169 1.123 4.01 5.583 6.851 7.374 1.973 1.244 5.204-.297 6.896 1.3 1.036.977-2.14 3.068-1.163 4.105 1.399 1.487 4.146 1.84 6.059 1.102 2.815-1.086 3.84-5.136 6.717-6.037 1.901-.595 4.237 3.656 5.567 2.185 1.58-1.747-3.618-7.2-1.272-6.928 4.993.576 7.766 6.841 12.59 8.243 1.424.414.322-3.515 1.688-4.091 1.675-.706 3.567.715 5.336 1.133 4.334 1.027 8.528 3.495 12.975 3.203 2.336-.153 3.765-6.012 5.45-4.403 1.82 1.74-4.597 5.406-2.683 7.046 3.19 2.73 8.612-.026 12.561 1.419 1.778.65 1.648 4.848 3.504 4.454 1.713-.363-.835-3.74.08-5.222 1.545-2.504 4.082-4.42 6.707-5.768 3.54-1.817 9.63-.014 11.414-3.547 2.104-4.166-3.121-9.09-2.687-13.725.128-1.367 3.135.174 4.067-.838 2.194-2.384 1.448-9.416 4.58-8.558 7.138 1.958 10.086 11.345 16.81 14.417 2.263 1.034 4.52-5.372 6.43-3.788 3.878 3.216 2.252 10.325 5.786 13.908 1.45 1.47 3.905-1.395 5.857-2.09l.072-.434c.912 2.665 4.064 5.508 2.736 7.994-1.432 2.682-8.149.067-8.642 3.062-.647 3.932 6.702 6.098 6.48 10.075-.673 12.01-9.092 22.935-9.003 34.964.027 3.75 8.327 2.796 9.309 6.416.775 2.86-5.376 3.901-5.713 6.845-.328 2.87 2.126 5.512 4.049 7.68 3.613 4.074 6.945 9.712 12.31 10.766 3.896.766 6.076-6.627 10.04-6.372 3.417.22 3.972 5.867 6.991 7.468 2.63 1.394 6.634-.975 8.891.955 1.57 1.343.783 5.161-.544 5.732-1.354.583-7.166-.193-5.414.182 3.48.744 7.702-.704 10.597 1.352 2.4 1.704.926 6.159 2.961 8.278 1.435 1.493 4.244 2.06 6.124 1.18 2.432-1.14 2.226-6.32 4.916-6.351 5.085-.06 9.79 3.229 13.95 6.13.87.606-1.81 3.128-.748 3.078 6.352-.305 13.435-7.528 18.663-3.935 4.508 3.097-3.302 11.547-.653 16.31 3.906 7.022 11.213 12.027 18.428 15.643 1.726.864 1.249-4.731 3.18-4.815 4.647-.203 8.684 4.333 13.329 4.095 3.607-.185 5.937-4.438 9.452-5.262 1.676-.392 4.133.346 4.79 1.926.682 1.64-2.918 3.498-1.92 4.97 1.47 2.164 5.337 1.23 7.305 2.962 1.507 1.324 2.59 3.54 2.345 5.522-.254 2.04-1.675 4.377-3.652 4.992-2.218.69-5.25-3.519-6.748-1.755-2.38 2.802.463 7.609-1.06 10.948-.712 1.559-3.966.409-4.807 1.903-.68 1.208 2.3 2.67 1.57 3.85-2.335 3.78-8.965 4.853-9.653 9.235-.417 2.663 5.974-1.189 8.134.443 1.419 1.072-1.964 4.189-.56 5.28 3.507 2.724 9.035 1.622 12.692 4.144 1.533 1.057.797 3.621 1.195 5.432l.03.056z" clip-rule="evenodd" fill="#c9c9c9" fill-rule="evenodd" image-rendering="optimizeQuality" shape-rendering="geometricPrecision" stroke="#fff" stroke-linejoin="bevel" stroke-width="2.589"/><path d="M654.19 460.45c2.726-3.52.601-9.835-2.378-13.136-2.213-2.453-7.332 1.59-9.902-.483-2.457-1.983-3.081-6.218-2.143-9.233 1.254-4.03 6.132-6.009 8.053-9.759 1.592-3.107.335-7.296 2.202-10.246 1.045-1.653 3.637-2.462 5.527-1.976 1.474.378.77 4.255 2.27 3.975 2.947-.555 4.146-4.663 6.947-5.723 4.443-1.683 10.003.197 14.076-2.247 2.505-1.502.592-6.92 3.239-8.147 2.699-1.25 5.558 3.05 8.511 2.697 1.703-.205 3.277-2.383 3.123-4.086-.268-2.986-5.823-5.434-4.204-7.955 3.511-5.459 10.822-7.17 16.231-10.753.01-3.809-1.183-7.815.027-11.42.484-1.443 3.792-.08 4.315-1.508l3.009-8.208c.69-1.882-3.592-2.6-3.902-4.58-.207-1.328 2.36-1.683 2.72-2.974.415-1.49.587-3.622-.606-4.597-3.997-3.266-10.245-3.35-13.754-7.139-1.49-1.609 1.562-4.334 1.137-6.482-.221-1.116-.856 3.439-1.854 2.88-1.11-.621 1.306-3.232.177-3.817-3.653-1.895-8.407-.608-12.123-2.385-3.256-1.557-8.06-3.646-8.04-7.257.014-2.748 6.837.878 8.09-1.564.992-1.932-6.191-1.525-5.458-3.567.864-2.405 6.082.25 7.433-1.919 1.348-2.164-2.451-5.089-1.583-7.483.524-1.448 4.995.742 4.559-.732-.593-2.002-6.143-.786-5.605-2.8.76-2.847 5.052-3.047 7.578-4.569.168-1.965 2.128-4.787.5-5.89-4.603-3.116-10.684-3.107-16.036-4.627-.99-.282-3.466.133-2.993-.782 1.026-1.982 4.913-1.755 5.428-3.924.352-1.479-4.13-.797-3.938-2.304.22-1.72 3.547-1.107 4.554-2.514 2.351-3.287 5.48-6.974 5.108-10.995-.282-3.042-5.954-3.304-6.697-6.267-1.272-5.07 2.23-10.518 1.196-15.644-.631-3.13-2.704-7.273-5.878-7.555-3.601-.321-5.292 5.875-8.895 6.233-3.281.326-5.547-4.117-8.826-4.477-2.536-.278-4.616 2.845-7.164 2.709-2.004-.107-4.46-1.426-5.003-3.36-.642-2.283 3.184-4.663 2.137-6.788-1.117-2.27-5.263-1.158-6.973-3.027-.805-.88 2.098-2.822 1.07-3.417-3.808-2.208-9.104-.933-12.776-3.366-1.267-.84 1.717-3.126.978-4.448-1.108-1.982-6.264-1.682-5.623-3.86.86-2.928 6.32-1.857 8.04-4.37.994-1.453-2.206-3.386-1.6-5.04.444-1.213 3.019.158 3.776-.884 1.208-1.661 1.98-4.116 1.26-6.037-1.233-3.292-5.754-4.812-6.618-8.22-.684-2.697 3.045-5.237 2.502-7.962-.735-3.683-6.138-5.8-5.993-9.554.111-2.888 4.39-3.761 6.586-5.64-2.96-.92-6.553-.713-8.883-2.755-2.859-2.504-2.686-7.495-5.599-9.937-1.914-1.605-5.59.695-7.43-.992-3.478-3.189-3.584-9.082-7.054-12.279-1.592-1.466-4.568-1.185-6.5-.203-1.308.663-.006 4.782-1.35 4.193-3.46-1.517-4.59-6.251-7.816-8.216-1.378-.838-4.18-.969-4.83.515-1.298 2.963 2.435 7.233.35 9.704-2.898 3.434-9.359 1.705-12.603 4.819-1.311 1.257 3.117 3.1 2.548 4.83-.892 2.707-3.263 6.023-6.116 5.991-5.609-.065-10.534-8.6-15.626-6.25-4.066 1.88 1.918 9.38.042 13.45-.815 1.773-4.293-2.274-5.779-1.004-1.793 1.533.308 5.168-1.204 6.98-1.421 1.703-4.742.516-6.34 2.058-.843.813 1.776 3.29.616 3.467-3.933.598-7.85-2.177-11.808-1.76-3.267.345-6.364 5.846-9.05 3.945-3.244-2.299 1.151-9.332-1.989-11.763-2.205-1.705-3.889 4.977-6.678 5.05-2.185.056-2.341-4.987-4.518-4.763-2.53.262-2.56 5.15-5.037 5.75-1.564.378-1.997-2.533-2.996-3.797-2.098 1.032-5.982.78-6.3 3.097-.699 5.093 5.972 10.285 3.816 14.955-1.433 3.102-7.494-3.25-10.193-1.153-2.708 2.102 1.545 8.519-1.45 10.188-2.746 1.53-5.025-4.131-8.08-4.875-1.272-.309-3.374.797-3.328 2.106.141 4.016 3.583 7.443 3.79 11.458.238 4.619 1.445 11.246-2.503 13.652-5.256 3.203-12.575-2.696-18.457-.872-3.189.99-2.263 7.838-5.567 8.333-4.699.704-8.429-4.917-13.142-5.531-1.253-.163.205 3.095-.914 3.69-2.429 1.295-5.438 1.381-8.18 1.159-6.277-.51-12.449-1.992-18.607-3.334-2.496-.544-4.793-2.748-7.308-2.312-2.929.507-6.441 2.087-7.477 4.876-1.155 3.113 4.007 7.081 2.041 9.758-1.646 2.243-5.756-2.519-8.253-1.293-1.477.724 2.338 3.84 1.03 4.844-4.629 3.548-11.606 3.1-16.154 6.756-2.362 1.9-1.047 6.258-2.962 8.617-1.087 1.339-3.547 2.103-5.03 1.227-2.691-1.59-2.6-8.349-5.61-7.517-5.784 1.6-7.363 10.202-12.855 12.63-4.934 2.182-11.01 1.713-16.197.218-1.606-.463.997-5.968-.361-5-5.29 3.77-7.332 11.357-13.007 14.53-3.896 2.176-9.144-1.134-13.39.237-4.39 1.418-9.31 3.698-11.443 7.788-1.993 3.821 1.995 8.832.632 12.922-.494 1.481-3.372-2.77-4.417-1.605-1.873 2.088.643 6.554-1.576 8.278-2.075 1.61-5.44-2.08-7.823-.98-2.18 1.007-2.391 4.17-3.59 6.258 1.539 3.018 4.15 5.7 4.613 9.057.155 1.124-2.768-1.221-3.406-.278-1.899 2.814-6.216 8.703-2.985 9.745 7.919 2.555 16.5-3.02 24.811-2.706 1.69.064 4.301 2.344 3.4 3.78-1.32 2.107-5.788.098-7.147 2.183-.873 1.34 2.385 2.217 3.832 2.898 5.69 2.676 11.244 6.284 17.478 7.13 3.591.487 7.109-4.953 10.353-3.344 4.774 2.367 4.695 10.268 9.237 13.06 2.882 1.773 10.522-4.536 10.074-1.187l-1.084 8.1c-.641 4.796 9.137 3.257 13.852 4.34 1.507.348 4.129-1.54 4.632-.085.658 1.901-3.263 3.4-2.8 5.362l3.312 13.993c.401 1.697-4.687-1.833-5.236-.177-3.662 11.054-6.51 22.767-6.104 34.41.088 2.523 7.484-.71 7.361 1.815-.143 2.949-5.71 2.232-7.669 4.443-1.719 1.94-.31 6.348-2.725 7.288-1.979.77-2.471-4.51-4.594-4.429-3.836.15-8.643 1.575-10.39 4.996l-5.006 9.802c-.608 1.19.743 3.161 2.05 3.452 3.09.688 8.136-3.758 9.461-.885 1.253 2.717-7.847.19-8.42 3.128-.626 3.196 7.423 4.361 6.353 7.44-.983 2.827-11.662-1.23-8.996.143l16.337 8.41c7.208 3.712-4.498 15.989-3.679 24.063.205 2.023 5.044-1.782 6.103-.048 1.77 2.898.07 6.798.103 10.2 4.09-1.457 7.94-4.612 12.27-4.37 2.116.118 1.465 5.172 3.583 5.266 2.372.106 2.835-4.694 5.2-4.869 2.69-.2 5.358 1.876 7.066 3.964.636.776-2.76 1.792-1.914 2.336 2.395 1.541 5.65 2.7 8.361 1.814 2.19-.716 1.645-4.928 3.779-5.783 3.253-1.305 7.792 2.235 10.518.036 2.792-2.252-.01-7.862 2.43-10.487 2.452-2.633 7.145-4.93 10.308-3.217 2.83 1.533-.165 6.752 1.405 9.564.826 1.48 3.136 1.605 4.833 1.608 8.249.017 17.023 1.457 24.708-1.542 3.237-1.264 1.444-7.248 3.949-9.65 2.035-1.953 5.569-2.967 8.223-2.019 3.156 1.127 3.992 5.602 6.822 7.4 1.964 1.248 5.18-.298 6.865 1.304 1.032.981-2.13 3.079-1.158 4.12 1.393 1.491 4.129 1.846 6.034 1.105 2.802-1.09 3.823-5.154 6.687-6.057 1.893-.598 4.219 3.668 5.544 2.192 1.572-1.753-3.604-7.224-1.267-6.953 4.97.578 7.732 6.867 12.536 8.273 1.417.415.584-3.115 1.68-4.105.588-.53 1.55.33 2.325.495.996.214 1.999.401 2.988.641 4.312 1.045 8.491 3.508 12.92 3.215 2.325-.154 3.748-6.034 5.425-4.419 1.813 1.746-4.576 5.425-2.67 7.07 3.176 2.74 8.573-.025 12.506 1.424 1.77.653 1.64 4.864 3.488 4.47 1.707-.365-.831-3.753.08-5.24 1.538-2.513 4.065-4.436 6.68-5.788 3.524-1.823 9.587-.014 11.363-3.56 2.094-4.18-3.107-9.12-2.675-13.771.127-1.372 3.122.175 4.049-.841 2.185-2.393 1.442-9.449 4.56-8.587 7.108 1.964 10.043 11.384 16.737 14.466 2.254 1.038 4.5-5.39 6.403-3.801 3.86 3.227 2.242 10.359 5.76 13.956 1.443 1.475 4.714-.362 5.832-2.097 1.655-2.57-.984-7.106 1.355-9.064 2.583-2.16 7.768 1.92 10.09-.514 1.85-1.939-4.769-6.886-2.227-7.73 5.36-1.778 11.066 3.432 16.688 2.925 4.603-.415 8.086-5.765 12.7-5.563 3.995.175 6.067 6.9 10.053 6.567 2.532-.21-.822-6.099 1.284-7.512 4.39-2.947 12.186.474 15.423-3.705z" clip-rule="evenodd" fill="#c9c9c9" fill-rule="evenodd" image-rendering="optimizeQuality" shape-rendering="geometricPrecision" stroke="#fff" stroke-linejoin="bevel" stroke-width="2.588"/><path d="M476.65 293.51c-2.392.69-5.95-1.965-7.468.022-2.086 2.728 1.791 7.716-.438 10.33-1.882 2.205-5.95 1.326-8.665.33-1.946-.714-1.818-5.33-3.845-4.917-5.91 1.204-11.127 5.064-15.789 8.918-1.443 1.193 4.004-1.482 5.58-.48 3.29 2.096 7.868 4.984 7.645 8.9-.194 3.426-6.965 2.674-8.486 5.748-.761 1.54 3.809.156 4.918 1.463 2.197 2.59 1.975 6.765 4.232 9.305 1.14 1.283 4.787-.6 5.017 1.108.36 2.672-5.14 4.673-3.914 7.07 1.476 2.886 7.361.465 9.15 3.166 1.26 1.905-3.239 3.933-2.949 6.207.163 1.28 3.884-.728 3.802.557-.125 1.945-5.583 2.874-4.108 4.14 3.833 3.29 9.574 6.183 14.383 4.675 3.007-.943-1.686-7.687.909-9.475 3.539-2.438 8.909 1.642 12.864-.02 3.055-1.285 3.298-6.097 6.052-7.945 2.15-1.443 5.47.13 7.657-1.254.879-.557-1.933-2.654-.951-3 3.158-1.112 6.757.44 10.042-.207 1.003-.198 1.186-2.515 2.151-2.195 4.369 1.453 7.533 5.748 11.987 6.895 1.224.314-1.002-2.975-.06-3.822.893-.803 3.375 1.899 3.528.704.674-5.298-3.496-10.966-1.577-15.943 1.427-3.699 7.524-3.172 10.108-6.162 1.404-1.625 2.103-4.738.771-6.418-2.22-2.796-7.126-2.127-9.595-4.703-1.193-1.245 1.566-4.284.11-5.201-3.478-2.192-8.892.232-12.099-2.35-1.958-1.577 1.803-6.107-.23-7.58-3.732-2.704-9.47-.367-13.582-2.437-1.536-.774.42-5.318-1.272-5.034-9.067 1.524-17.042 7.054-25.878 9.605z" clip-rule="evenodd" fill="#c9c9c9" fill-rule="evenodd" image-rendering="optimizeQuality" shape-rendering="geometricPrecision" stroke="#fff" stroke-linejoin="bevel" stroke-width="2.587"/><path d="M298.18 672.41c-3.115-.183-6.8-2.347-9.349-.547-2.524 1.784.576 9.153-2.509 8.937-5.956-.418-10-6.551-14.76-10.153-1.844-1.395-4.486-2.559-5.005-4.812-1.516-6.593 2.542-14.385-.773-20.281-5.264-9.362-14.006-16.82-23.204-22.367-3.11-1.875-7.21 2.758-10.734 1.884-4.375-1.085-8.811-3.643-11.35-7.368-2.296-3.37.348-8.704-1.92-12.089-2.882-4.3-9.26-5.233-12.43-9.33-3.013-3.895-2.397-9.87-5.431-13.744-2.59-3.305-8.002-3.497-10.637-6.766-2.263-2.81-.635-5.476-.585-7.166.05-1.69 1.182-3.734.153-5.071-1.008-1.309-3.54-.028-4.854-1.027-4.609-3.506-7.362-9.36-12.447-12.13-4.13-2.249-9.391-3.463-13.938-2.243-1.888.507 2.468 5.857.511 5.851-7.534-.023-15.983-1.153-21.816-5.917-4.25-3.472-1.979-11.033-4.742-15.775-2.244-3.852-5.96-6.833-9.774-9.133-3.194-1.924-8.221-.456-10.724-3.222-3.154-3.485-4.065-8.726-4.34-13.417-.297-5.025 4.734-10.261 2.69-14.857-1.737-3.906-9.505-1.637-11.667-5.32-3.947-6.721-2.458-15.284-4.204-22.817-.466-2.01-.537-3.05-1.612-3.662-1.834-1.043-5.663 1.497-6.323-.51-2.144-6.513 2.993-14.736-.621-20.559-2.945-4.745-11.67-1.956-15.726-5.791-4.746-4.487-10.342-11.1-8.887-17.466 1.298-5.683 11.786-4.182 14.956-9.071 2.695-4.155-1.108-10.19.56-14.848.645-1.799 4.34-.287 5.426-1.858 1.15-1.663-.891-4.29.052-6.076 4.521-8.565 11.66-13.31 11.179-15.188-.482-1.876.07-4.436-1.452-5.628l1.452 5.628c2.996 1.405 5.717 4.706 8.988 4.218 4.346-.648 6.65-7.54 11.027-7.214 3.523.262 3.179 6.926 6.34 8.503 1.814.904-2.698-4.557-1.235-5.953 2.06-1.964 6.276.827 8.485-.96 1.255-1.014-3.177-3.917-1.69-4.54 6.883-2.888 14.582-4.398 22.035-4.006 3.353.176 5.042 5.171 8.37 5.603 2.844.37 5.014-3.654 7.877-3.483 3.038.181 4.957 4.766 7.983 4.443 2.935-.314 5.436-3.24 6.527-5.979 1.431-3.594-1.817-8.477.47-11.592 1.658-2.256 5.88.769 8.388-.471 1.056-.522-1.276-2.858-.307-3.53 4.747-3.29 11.062-3.838 15.767-7.181 2.43-1.727 2.295-6.012 4.876-7.493 1.175-.674.7 3.2 2.015 3.54 3.565.922 7.605-1.456 11.05-.162 5.43 2.041 9.277 12.398 14.43 9.737 5.082-2.624-3.063-12.304-.054-17.167 2.309-3.732 8.914-1.18 12.735-3.333 1.403-.79 2.135-3.204 1.393-4.63-.717-1.38-3.914.142-4.485-1.307-.832-2.114-.07-4.897 1.326-6.686.797-1.02 2.599.004 3.894.004 1.653-.384 3.512-2.028 4.955-1.148 1.603.981-.004 5.29 1.878 5.322 2.274.039 2.265-5.968 4.412-5.215 2.954 1.035 1.517 7.064 4.391 8.305 2.248.968 4.247-2.443 6.37-3.664 1.531 3.005 4.131 5.677 4.593 9.019.154 1.12-2.757-1.217-3.392-.278-1.89 2.803-6.19 8.667-2.972 9.705 7.885 2.544 16.43-3.008 24.706-2.695 1.683.063 4.283 2.334 3.386 3.764-1.315 2.098-5.764.097-7.118 2.174-.869 1.333 2.376 2.207 3.816 2.885 5.666 2.665 11.196 6.258 17.404 7.1 3.576.485 7.079-4.932 10.309-3.33 4.755 2.357 4.676 10.224 9.198 13.006 2.87 1.764 10.478-4.518 10.032-1.183l-1.08 8.066c-.638 4.775 9.1 3.243 13.794 4.322 1.5.345 4.111-1.534 4.612-.085.655 1.893-3.25 3.385-2.787 5.339l3.297 13.933c.4 1.69-4.667-1.825-5.214-.176-3.647 11.007-6.483 22.67-6.078 34.264.087 2.512 7.452-.708 7.33 1.807-.143 2.936-5.687 2.222-7.637 4.424-1.711 1.932-.308 6.32-2.713 7.257-1.97.767-2.461-4.492-4.574-4.41-3.82.148-8.607 1.568-10.346 4.975l-4.985 9.76c-.605 1.185.74 3.148 2.04 3.437 3.079.685 8.103-3.741 9.422-.881 1.248 2.705-7.814.19-8.385 3.115-.623 3.182 7.392 4.343 6.326 7.407-.979 2.816-11.613-1.224-8.958.144l16.267 8.375c7.178 3.695-4.478 15.92-3.662 23.959.204 2.014 5.022-1.775 6.076-.048 1.763 2.885.07 6.77.103 10.157-1.249 2.904-3.915 5.556-3.749 8.715.075 1.434 3.865-.624 4.247.76.904 3.272-2.116 6.835-1.239 10.12.68 2.545 5.397 3.075 5.473 5.71.064 2.165-3.995 2.11-5.2 3.916-1.118 1.677-1.766 3.928-1.348 5.906 1.226 5.806 5.694 10.8 6.127 16.722.245 3.36-1.817 6.84-4.243 9.186-2.385 2.31-7.507.974-9.202 3.83-1.636 2.757 2.767 6.714 1.258 9.55-1.07 2.01-5.542-1.06-6.794.85-1.25 1.908.258 5.018 1.924 6.578 1.338 1.253 6.193-1.33 5.49.358-1.627 3.9-8.57 4.506-9.261 8.68-.673 4.064 6.005 6.673 6.034 10.795.016 2.287-4.905 1.406-5.939 3.45-1.28 2.532 1.683 6.325-.119 8.522-1.398 1.707-4.668-1.345-6.615-.305-2.866 1.532-3.322 6.464-6.463 7.306-2.937.79-6.613-5.638-8.529-3.274-2.433 3.005 2.442 7.62 1.915 11.452-.187 1.36-3.925.39-3.74 1.755.634 4.67 5.532 8.223 5.729 12.933.115 2.75-2.516 5.288-4.914 6.643-1.097.62-2.267-2.939-3.173-2.064-2.85 2.753-5.003 6.588-5.572 10.512-.77 5.317 1.146 10.689 1.717 16.037z" clip-rule="evenodd" fill="#c9c9c9" fill-rule="evenodd" image-rendering="optimizeQuality" shape-rendering="geometricPrecision" stroke="#fff" stroke-linejoin="bevel" stroke-width="2.577"/><path d="M520.36 66.075c2.442 5.812 12.665 2.335 18.264 5.285 1.896.998.734 5.056 2.748 5.788 4.526 1.648 10.616 3.368 14.465.48 4.883-3.665 1.505-14.616 7.226-16.759 10.886-4.079 24.481 6.127 34.89.973 5.14-2.546-3.367-11.24-2.709-16.904.59-5.074 5.57-8.935 6.306-13.987.343-2.348-1.244-5.156-3.33-6.3-1.239-.677-1.898 2.894-3.295 2.668-1.888-.305-4.072-1.99-4.201-3.883-.175-2.55 1.64-5.06 3.472-6.848 2.027-1.977 4.718-3.881 7.556-3.92 5.616-.077 11.579.84 16.458 3.6 1.547.876-1.845 3.805-.822 5.255 1.075 1.523 3.607 1.117 5.466 1.328.989.112 2.577.538 2.969-.37.916-2.125-1.066-4.989.184-6.932 1.104-1.718 4.568-3.939 5.729-2.257 2.031 2.943-3.111 9.139.113 10.716 4.225 2.068 8.865-4.639 13.532-4.033 2.08.27.139 4.672 1.746 6.018 1.427 1.194 4.218-1.122 5.603.12 2.224 1.996 3.889 5.209 3.647 8.18-.223 2.755-4.48 4.02-4.856 6.762-.596 4.341.397 9.053 2.142 12.983 1.746 3.93 5.27 7.695 7.983 9.819 2.714 2.124 5.778 1.164 7.648 2.416 1.87 1.25 2.293.796 2.932 4.646.639 3.85-.643 12.12.827 17.92.353 1.396 2.885 2.266 4.089 1.466 3.897-2.588 4.696-10.172 9.373-10.413 7.261-.374 12.892 6.95 19.89 8.91.331 2.294-.217 4.902.986 6.884 1.607 2.646 6.353 3.162 6.953 6.194 1.164 5.871-2.779 11.871-2.18 17.83.347 3.45 4.615 5.755 4.892 9.217.165 2.066-4.385 3.005-3.758 4.983 1.034 3.257 7.29 3.58 7.557 6.985.325 4.158-5.7 6.771-6.162 10.922-.186 1.679 3.85.455 4.733 1.895.887 1.447-1.231 3.566-.45 5.073 2.165 4.17 8.975 6.339 8.811 11.031-.112 3.233-6.053 3.164-9.309 2.982-1.72-.096-1.858-3.618-3.574-3.702-3.906-.192-7.629 4.167-11.346 2.963-3.82-1.238-4.545-6.781-7.766-9.166-1.09-.808 1.726 3.023.774 3.99-2.136 2.168-7.054.98-8.378 3.715-1.708 3.528 3.057 8.437.906 11.722-1.864 2.844-6.987 3.753-10.023 2.189-2.733-1.407-.494-6.672-2.736-8.762-1.144-1.067-.683 4.415-2.23 4.135-2.74-.497-3.583-4.525-6.124-5.65-4.58-2.027-9.776-4.83-14.618-3.534-4.3 1.149-4.507 9.727-8.96 9.853-6.095.173-10.537-6.107-15.809-9.16-2.94-.908-6.509-.704-8.823-2.718-2.84-2.471-2.669-7.396-5.562-9.806-1.901-1.584-5.553.686-7.38-.978-3.455-3.147-3.56-8.962-7.007-12.117-1.582-1.448-4.538-1.17-6.457-.201-1.3.654-.006 4.72-1.341 4.138-3.436-1.497-4.559-6.169-7.764-8.107-1.369-.828-4.152-.956-4.798.508-1.289 2.923 2.42 7.137.347 9.575-2.878 3.388-9.295 1.682-12.518 4.755-1.303 1.24 3.096 3.059 2.53 4.766-.885 2.671-3.24 5.943-6.074 5.912-5.572-.065-10.464-8.486-15.522-6.167-4.04 1.854 1.905 9.254.042 13.271-.81 1.75-4.265-2.244-5.741-.99-1.781 1.512.306 5.1-1.196 6.888-1.412 1.68-4.71.509-6.298 2.03-.837.802 1.764 3.247.612 3.42-3.906.592-7.798-2.147-11.729-1.735-3.245.34-6.321 5.768-8.989 3.892-3.223-2.268 1.143-9.209-1.976-11.607-2.19-1.682-3.863 4.911-6.633 4.983-2.17.055-2.326-4.921-4.488-4.7-2.514.259-2.543 5.082-5.004 5.674-1.554.373-1.983-2.5-2.976-3.746-1.079-2.328-1.294-5.305-3.242-6.984-1.51-1.301-4.916.796-5.93-.915-7.498-12.645-12.92-26.43-18.37-40.068-.787-1.97-1.125-4.46-.176-6.356 1.11-2.215 4.87-2.437 5.74-4.752 1.099-2.923-1.734-6.52-.433-9.358 1.356-2.96 4.557-4.96 7.57-6.223 1.001-.419 2.284 2.983 2.609 1.953 1.047-3.32-1.289-7.236.074-10.442.95-2.235 5.599-1.675 6.09-4.05.706-3.408-4.621-6.777-3.191-9.951 1.168-2.59 5.567-1.845 8.412-1.63.813.059-1.75 1.698-1.095 2.178 2.77 2.031 6.12 3.448 9.519 4.004 2.403.392 5.89.77 7.193-1.273 2.251-3.531-.756-8.952 1.554-12.444 1.304-1.974 5.057.55 7.104-.646 1.77-1.035 2.056-3.536 3.082-5.3z" clip-rule="evenodd" fill="#c9c9c9" fill-rule="evenodd" image-rendering="optimizeQuality" shape-rendering="geometricPrecision" stroke="#fff" stroke-linejoin="bevel" stroke-width="2.562"/><path d="M985.2 267.73c-2.227 8.908-3.468 18.126-6.682 26.728-.577 1.548-4.25.9-4.267 2.556-.03 2.773 4.375 4.443 4.163 7.207-.197 2.575-5.018 3.224-5.15 5.805-.149 2.9 4.25 4.592 4.46 7.491.232 3.224-2.296 2.466-9.853 8.457-2.06 1.634-.55 6.078-2.844 7.368-2.604 1.463-9.28-3.72-8.941-.747 1.559 13.769 11.019 25.72 13.313 39.388.412 2.458-4.482 2.54-5.932 4.572-.851 1.195-.303 2.922-.456 4.385 1.805 5.299 2.752 10.975 5.412 15.897 3.112 5.762 9.728 9.534 11.72 15.771.792 2.483-6.178 4.15-4.673 6.28 1.664 2.351 6.132-2.158 8.613-.702 2.37 1.39 2.12 5.078 3.179 7.62l-3.137 12.172c-1.781 1.459-5.17 2.08-5.345 4.38-.278 3.614 3.376 6.496 4.238 10.02.22.894-1.838-2.535-2.196-1.683-1.245 2.964-.752 6.395-1.129 9.592-7.518-2.624-14.715-6.477-22.551-7.872-8.44-1.498-17.142-.787-25.716-.704-1.678.018-4.166-.492-4.938 1-1.929 3.719 1.353 9.914-2.015 12.41-2.992 2.22-7.085-3.156-10.802-2.898-3.163.217-5.359 4.046-8.528 4.223-1.422.08-.944-3.11-2.272-3.628-1.213-.474-2.98.214-3.689 1.31-1.396 2.164.008 5.837-1.982 7.479-1.188.98-2.445-1.878-3.67-2.815-3.033-3.278-5.242-7.597-9.107-9.826-4.92-2.837-11.597-1.736-16.35-4.85-3.39-2.223-3.153-8.112-6.626-10.2-5.532-3.329-12.77-2.501-18.704-5.044-1.35-.58-.71-4.344-2.102-3.875l-7.679 2.591c-3.592 1.212-4.54-6.082-6.811-9.123-3.676-.471-7.736.277-11.036-1.41-2.36-1.206-2.185-7.774-4.53-6.539-3.662 1.93-2.32 8.146-4.804 11.457-.796 1.062-4.223-1.045-3.984.263l.775 4.23c.483 2.637-5.307 1.852-7.94 1.343-2.003-.385-3.2-2.537-4.799-3.804-3.313-2.155-8.237-2.898-9.946-6.46-1.248-2.603 2.816-5.262 2.944-8.143.054-1.21-1.553 2.871-2.691 2.455-3.583-1.314-5.65-5.435-9.208-6.82-2.156-.842-5.456 2.32-6.934.534-1.585-1.917 3.134-5.676 1.3-7.351-2.233-2.042-6.34 1.525-9.078.239-2.93-1.376-3.609-5.564-6.244-7.447-2.787-1.993-6.121-3.694-9.548-3.836-5.017-.206-9.881 3.82-14.802 2.826-2.418-.487-1.616-4.933-3.494-6.53-4.85-4.119-10.78-6.777-16.171-10.162.008-3.793-1.178-7.782.027-11.371.481-1.437 3.775-.08 4.296-1.501l2.995-8.172c.687-1.875-3.576-2.59-3.885-4.561-.205-1.322 2.35-1.675 2.708-2.96.414-1.484.586-3.607-.602-4.578-3.98-3.252-10.2-3.336-13.694-7.107-1.483-1.602 1.554-4.316 1.131-6.454-.22-1.112-.852 3.423-1.845 2.868-1.105-.62 1.3-3.219.176-3.802-3.637-1.886-8.37-.605-12.07-2.374-3.243-1.55-8.025-3.63-8.007-7.225.014-2.736 6.808.874 8.056-1.558.987-1.924-6.165-1.518-5.435-3.551.86-2.395 6.056.248 7.401-1.91 1.342-2.155-2.44-5.068-1.576-7.451.522-1.442 4.973.738 4.539-.729-.59-1.993-6.117-.782-5.581-2.788.757-2.835 5.03-3.034 7.546-4.55 1.081 1.604 1.495 3.99 3.244 4.812 1.187.558 2.562-.789 3.608-1.575 6.906-5.2 12.31-12.711 20.165-16.318 1.966-.903 1.55 4.985 3.685 5.358 4.202.734 8.307-2.9 12.556-2.522 3.208.285 5.381 4.544 8.597 4.409 3.818-.16 7.659-2.358 10.22-5.187 1.398-1.545-1.004-4.517.143-6.254 1.554-2.354 4.305-4.09 7.066-4.665 2.022-.422 4.838.174 5.888 1.95 1.483 2.508-1.06 6.233.427 8.74 1.224 2.06 4.345 3.955 6.542 2.997 6.458-2.815 9.83-11.143 16.597-13.095 5.054-1.458 11.415.342 15.301 3.891 3.654 3.339.883 10.752 4.464 14.168 2.592 2.472 7.677-1.5 10.746.345 2.268 1.364.386 5.874 2.418 7.571 1.91 1.595 5.255-.525 7.434.667 2.636 1.442 3.43 5.213 6.041 6.704 2.144 1.226 5.26-.372 7.348.942 2.329 1.465 2.064 6.524 4.807 6.714 3.617.251 5.656-5.23 9.248-5.736 1.458-.206-.243 4.03 1.213 4.257 2.492.389 4.443-3.049 6.96-2.975 3.634.106 7.179 5.271 10.343 3.482 2.357-1.333-4.79-4.69-3.771-7.195 1.285-3.156 7.2-2.188 8.812-5.187.899-1.671-5.114-3.119-3.677-4.354 7.878-6.777 19.049-8.932 26.953-15.671 2.228-1.9-1.347-8.36 1.565-8.647 7.188-.706 13.787 4.311 20.68 6.47 2.06 4.287 6.608 7.087 10.8 9.322 4.646 2.477 10.17 6.24 15.143 4.51 4.621-1.607 4.37-8.927 7.735-12.477 1.973-2.082 6.054-1.49 7.717-3.828 2.915-4.098 2.572-9.856 5.104-14.198 1.51-2.59 3.813-5.172 6.686-6.018 1.625-.478 2.621 2.327 4.253 2.786z" clip-rule="evenodd" fill="#c9c9c9" fill-rule="evenodd" image-rendering="optimizeQuality" shape-rendering="geometricPrecision" stroke="#fff" stroke-linejoin="bevel" stroke-width="2.577"/><path d="M838.35 127.48c1.91 1.138 1.197 5.214 3.348 5.777 2.426.634 5.486-1.01 6.85-3.11 2.14-3.29-1.053-10.166 2.642-11.475 7.058-2.503 15.814-1.1 22.313 2.615 8.728 4.99 14.184 14.286 20.67 21.966.892 1.057 2.17 2.953 1.235 3.97-2.02 2.194-6.559 1.108-8.207 3.6-1.247 1.887 2.267 4.545 1.424 6.646-.678 1.69-4.441.498-4.995 2.235-.492 1.54 3.61 2.24 3.074 3.769-1.266 3.607-3.996 7.105-7.461 8.732-3.369 1.581-7.968-1.871-11.175.022-2.533 1.496-.733 6.406-2.966 8.33-1.292 1.112-3.325-2.275-4.879-1.572-3.699 1.674-7.219 4.436-9.238 7.961-.96 1.677 2.695 4.14 1.452 5.621-1.013 1.21-2.3-2.85-3.875-2.735-1.34.098-2.468 1.851-2.47 3.196-.007 3.349.164 7.292 2.432 9.76 1.352 1.473 4.475-1.946 5.972-.622 4.362 3.861 7.196 19.007 8.765 16.937.737-.972 2.34-6.962 5.491-7.736 3.641-.895 8.608-1.491 11.184 1.23 4.062 4.293 1.896 12.346 5.837 16.755 2.268 2.536 7.633-1.157 10.144 1.133 10.184 9.286 19.473 19.971 26.197 32.003 4.147 7.42 1.914 17.222 5.597 24.888-6.94-2.173-13.583-7.224-20.82-6.513-2.932.288.667 6.793-1.577 8.705-7.957 6.785-19.204 8.955-27.136 15.777-1.446 1.244 4.608 2.701 3.703 4.384-1.623 3.02-7.579 2.045-8.872 5.222-1.027 2.521 6.17 5.902 3.797 7.244-3.186 1.802-6.755-3.398-10.413-3.506-2.534-.074-4.5 3.387-7.008 2.996-1.465-.228.247-4.493-1.22-4.287-3.617.51-5.67 6.029-9.311 5.776-2.762-.192-2.496-5.284-4.84-6.76-2.102-1.323-5.24.286-7.398-.948-2.629-1.502-3.428-5.298-6.082-6.75-2.194-1.2-5.562.935-7.485-.671-2.045-1.708-.15-6.25-2.434-7.623-3.09-1.858-8.21 2.142-10.82-.346-3.605-3.439-.815-10.903-4.493-14.264-3.912-3.574-10.317-5.386-15.405-3.919-6.812 1.966-10.207 10.35-16.709 13.184-2.212.965-5.354-.942-6.586-3.017-1.499-2.524 1.062-6.274-.43-8.799-1.058-1.788-3.892-2.388-5.928-1.963-2.78.58-5.55 2.326-7.115 4.697-1.154 1.748 1.264 4.74-.144 6.296-2.578 2.848-6.445 5.06-10.289 5.222-3.237.136-5.426-4.151-8.655-4.439-4.278-.38-8.411 3.278-12.642 2.54-2.149-.376-1.731-6.304-3.71-5.395-7.91 3.632-13.35 11.195-20.303 16.429-1.052.791-2.437 2.148-3.632 1.586-1.76-.828-2.177-3.23-3.266-4.844.169-1.97 2.133-4.8.501-5.904-4.614-3.124-10.71-3.115-16.075-4.64-.992-.281-3.474.134-3-.782 1.028-1.988 4.924-1.76 5.442-3.934.352-1.482-4.141-.8-3.948-2.31.22-1.725 3.555-1.11 4.564-2.52 2.358-3.295 5.494-6.99 5.121-11.02-.282-3.05-5.969-3.312-6.713-6.283-1.276-5.083 2.236-10.543 1.2-15.682-.634-3.137-2.712-7.29-5.894-7.574-3.61-.321-5.305 5.89-8.916 6.249-3.29.327-5.56-4.127-8.847-4.488-2.543-.279-4.627 2.852-7.182 2.715-2.008-.107-4.47-1.43-5.014-3.367-.645-2.29 3.19-4.675 2.142-6.805-1.12-2.275-5.277-1.161-6.99-3.034-.808-.883 2.102-2.829 1.072-3.426-3.817-2.212-9.126-.935-12.807-3.374-1.27-.841 1.721-3.133.98-4.459-1.11-1.987-6.278-1.686-5.636-3.869.863-2.935 6.335-1.861 8.059-4.38.997-1.457-2.211-3.395-1.604-5.052.445-1.216 3.027.158 3.786-.887 1.21-1.665 1.985-4.125 1.263-6.052-1.237-3.3-5.768-4.823-6.635-8.24-.685-2.702 3.053-5.248 2.509-7.98-.737-3.693-6.153-5.814-6.007-9.577.11-2.895 4.4-3.77 6.601-5.654 5.32 3.102 9.802 9.48 15.953 9.305 4.494-.128 4.703-8.842 9.041-10.009 4.887-1.316 10.13 1.531 14.752 3.59 2.565 1.143 3.416 5.235 6.18 5.74 1.562.285 1.097-5.285 2.25-4.2 2.264 2.123.005 7.471 2.762 8.9 3.064 1.59 8.234.666 10.114-2.223 2.171-3.338-2.638-8.324-.914-11.91 1.336-2.778 6.299-1.57 8.454-3.773.961-.982-1.881-4.874-.78-4.053 3.25 2.423 3.98 8.054 7.837 9.311 3.75 1.223 7.508-3.205 11.45-3.01 1.732.086 1.87 3.664 3.606 3.761 3.286.185 9.282.255 9.395-3.03.165-4.766-6.707-6.969-8.892-11.205-.788-1.531 1.35-3.684.454-5.154-.891-1.463-4.964-.22-4.776-1.925.466-4.217 6.546-6.872 6.218-11.096-.269-3.46-6.583-3.787-7.626-7.096-.633-2.01 3.96-2.963 3.792-5.062-.28-3.517-4.586-5.858-4.936-9.364-.604-6.053 3.374-12.148 2.2-18.112-.606-3.08-5.395-3.605-7.017-6.293-1.214-2.013-.661-4.662-.995-6.992 4.334 1.221 9.278-1.134 13.5.415 7.796 2.862 13.345 11.331 21.57 12.465 7.78 1.073 15.953-10.383 22.69-6.355 7.95 4.754 2.11 21.122 10.031 25.923 7.51 4.553 17.913-7.375 26.04-4.05 5.86 2.399 7.074 11.287 7.123 17.62.025 3.072-7.177 3.018-6.937 6.082.226 2.882 4.825 3.937 7.716 3.97 2.428.028 4.943-1.734 6.206-3.803 1.708-2.8.502-6.714 1.991-9.632 1.5-2.94 3.391-6.97 6.674-7.326 5.166-.56 10.302 2.354 14.763 5.011z" clip-rule="evenodd" fill="#c9c9c9" fill-rule="evenodd" image-rendering="optimizeQuality" shape-rendering="geometricPrecision" stroke="#fff" stroke-linejoin="bevel" stroke-width="2.594"/><path d="M93.213 367.25c-.48-1.872.07-4.425-1.448-5.615-4.26-3.34-12.038-2.27-14.653-7.01-1.716-3.11 4.746-5.527 5.876-8.89.377-1.121-1.021-2.2-1.866-3.03-1.691-1.658-3.281-4.098-5.642-4.34-2.304-.235-4.104 4.076-6.219 3.126-1.807-.812 1.45-4.671-.06-5.95-3.482-2.95-8.945-2.454-12.78-4.929-2.588-1.668-3.27-5.52-5.904-7.118-.957-.58-2.077 2.642-2.841 1.817-1.424-1.537.576-5.057-1.194-6.173-3.385-2.138-8.846.592-11.843-2.066-1.632-1.449 4.155-4.097 2.893-5.873-3.635-5.12-11.373-6.223-15.083-11.287-2.037-2.782-1.445-6.944-.753-10.32.616-3.003 4.323-4.957 4.515-8.014.216-3.426-1.308-7.006-3.402-9.724-1.754-2.275-5.728-2.053-7.445-4.356-1.566-2.101.426-5.999-1.554-7.712-2.219-1.92-6.101.124-8.73-1.179-1.823-.903-4.557-3.127-3.61-4.925 1.969-3.73 9.494-3.362 10.174-7.521.852-5.206-9.599-10.076-6.579-14.4 3.125-4.473 12.163-3.085 16.37.387 4.028 3.327-.513 11.384 2.793 15.433 2.297 2.815 7.444-.053 10.83 1.25 1.357.521 2.737 2.416 2.213 3.773-.813 2.108-6.19 2.143-5.307 4.223 1.763 4.154 8.858 4.223 10.643 8.364 1.098 2.547-3.681 4.622-3.843 7.396-.14 2.396 1.086 5.123 3.022 6.538 2.295 1.679 7.264 4.402 8.35 1.776 2.901-7.007-1.571-15.411.343-22.745.458-1.752 3.987 3.32 5.1 1.891 1.49-1.914-1.76-4.932-.95-7.215 1.254-3.543 4.478-6.045 6.717-9.064 2.24-3.02-1.305.555 0 0s3.443-.33 3.912-1.662c.946-2.69-1.975-6.236-.313-8.55 1.326-1.844 4.97.856 6.803-.48 3.49-2.54 4.354-7.815 7.92-10.245 1.267-.864 3.255 3.293 4.13 2.034 3.053-4.4.484-12.467 5.053-15.258 10.021-6.12 24.139-3.436 26.353-3.93 2.214-.495 4.503-2.237 6.636-1.48 2.912 1.035 3.94 7.324 6.842 6.263 3.862-1.411 2.7-8.199 5.808-10.887 3.543-3.065 8.305-5.497 12.984-5.38 2.1.053.853 7.026 2.546 5.777 2.644-1.952-.583-10.559 2.538-9.533 10.777 3.54 28.697 26.75 25.457 18.732-.334-.825-1.462-2.104-1.001-2.471l1 2.47c1.819 1.593 3.084 4.323 5.457 4.78 3.156.607 6.26-2.256 9.452-1.904 5.488.606 11.835.957 15.881 4.711 2.167 2.01-2.253 5.964-1.34 8.778.552 1.7 3.12 2.278 4.9 2.17 6.51-.395 12.805-4.738 19.227-3.626 3.132.542 5.315 4.717 5.36 7.898.094 6.68-4.598 12.749-4.978 19.419-.074 1.299 3.195-.307 3.819.834 1.215 2.223 1.434 5.121.785 7.573-.337 1.276-3.759.857-3.36 2.12.91 2.878 5.14 3.816 6.135 6.667.482 1.383-3.041 2.197-2.56 3.581.511 1.465 3.466.344 4.374 1.6 2.518 3.482 4.11 7.631 5.288 11.765.362 1.27.19 3.032-.819 3.891-.944.805-3.722-1.27-3.725-.03-.006 2.406 5.271 4.377 3.704 6.204-1.567 1.826-4.294-2.938-6.693-2.729-1.96.171-5.862 2.196-4.603 3.71 2.075 2.494 6.909.213 9.494 2.174 2.76 2.095 3.487 6 5.227 9-1.292 0-3.09-1.021-3.884-.004-1.394 1.784-2.153 4.56-1.323 6.67.57 1.445 3.758-.073 4.474 1.303.74 1.423.01 3.83-1.39 4.62-3.811 2.147-10.401-.399-12.704 3.324-3.001 4.851 5.124 14.508.054 17.126-5.14 2.655-8.977-7.677-14.394-9.713-3.438-1.292-7.468 1.08-11.024.161-1.311-.338-.838-4.204-2.01-3.532-2.575 1.478-2.44 5.753-4.864 7.476-4.693 3.335-10.994 3.88-15.729 7.163-.967.67 1.36 3.001.306 3.521-2.502 1.237-6.714-1.78-8.367.47-2.282 3.107.958 7.979-.47 11.565-1.088 2.732-3.583 5.65-6.511 5.963-3.019.323-4.932-4.25-7.963-4.432-2.857-.17-5.021 3.844-7.858 3.475-3.32-.43-5.006-5.413-8.35-5.59-7.435-.39-15.115 1.116-21.98 3.996-1.485.623 2.936 3.518 1.684 4.53-2.203 1.783-6.41-1.002-8.463.958-1.46 1.393 3.04 6.84 1.232 5.939-3.154-1.573-2.811-8.222-6.325-8.483-4.368-.325-6.665 6.55-11.001 7.197-3.263.487-5.978-2.806-8.967-4.208z" clip-rule="evenodd" fill="#c9c9c9" fill-rule="evenodd" image-rendering="optimizeQuality" shape-rendering="geometricPrecision" stroke="#fff" stroke-linejoin="bevel" stroke-width="2.571"/><path d="M177.47 209.57c-.336-.832-1.475-2.123-1.01-2.493 2.42-1.928 6.317-1.003 8.873-2.74 2.87-1.95 5.656-4.627 6.783-7.906 2.25-6.552-1.388-15.208 2.996-20.566 2.466-3.015 7.401 3.641 11.26 3.131 3.802-.503 6.082-5.323 9.869-5.913 1.42-.22-.357 3.67.975 4.207 3.618 1.46 9.163 3.892 11.672.908 6.485-7.715 5.838-19.556 11.186-28.096 1.162-1.854 4.687-1.365 6.567-.249 1.724 1.024.502 4.783 2.36 5.546 2.1.864 5.308.015 6.55-1.882 1.588-2.425-1.345-6.37.38-8.695 1.764-2.379 6.498-.755 8.338-3.075 2.183-2.751-1.23-10.58 2.263-10.288 4.678.391 5.013 8.117 8.564 11.191 2.663 2.306 6.227 5.627 9.569 4.507 5.4-1.81 9.385-6.97 12.308-11.855.891-1.492-3.037-2.955-2.473-4.598 1.089-3.173 6.056-4.26 6.648-7.56.576-3.217-5.615-6.498-3.646-9.102 2.544-3.364 8.364-1.3 12.411-2.492 5.528-1.63 10.474-5.746 16.228-5.954 3.374-.123 5.408 5.213 8.784 5.057 2.348-.11 1.87-5.436 4.204-5.651 7.03-.65 13.888 2.702 20.917 3.345 1.737.16 3.875.245 5.147-.946 1.267-1.185-.192-4.098 1.253-5.057 1.303-.864 3.803 2.606 4.528 1.222 2.852-5.437.8-12.838 4.23-17.925 1.295-1.92 4.651 2.577 6.761 1.62 4.446-2.013 6.24-8.587 10.994-9.673 3.272-.748 5.39 4.344 8.637 5.18 1.283.33 2.188-1.53 3.39-2.083 11.825-5.443 24.805-8.726 35.664-15.897 2.531-1.673-.956-7.827 1.878-8.909 9.927-3.792 21.896.322 31.645-3.902 3.487-1.511 5.333-8.196 2.822-11.047-4.266-4.844-12.5-3.557-18.26-6.475-1.284-.65-2.697-2.512-2.06-3.802.802-1.629 3.963-.666 5.009-2.15.802-1.135.789-3.878-.579-4.14-2.66-.509-5.024 2.72-7.73 2.55-2.183-.138-5.611-1.211-5.62-3.4-.017-4.662 4.738-8.246 5.57-12.828.296-1.63-3.001-2.776-2.44-4.332.85-2.356 3.253-4.949 5.751-4.837 2.944.131 4.206 4.478 7.005 5.412 2.95.984 6.476-1.17 9.337.046 2.623 1.114 2.88 6.185 5.725 6.36 3.448.21 5.37-5.161 8.809-5.469 2.956-.263 5.196 5.054 7.959 3.983 2.418-.938-1.035-8.3 1.475-7.648 2.583.672-1.589 5.82-.07 8.016 1.362 1.969 5.024.45 6.928 1.896 1.049.797-.558 3.5.7 3.9 1.875.598 3.958-2.976 5.597-1.892 3.477 2.303 7.068 6.131 7.117 10.303.081 6.825-10.68 13.737-6.77 19.335 3.394 4.861 14.34-9.475 17.257-4.315 4.03 7.13-9.414 16.21-6.256 23.774-1.035 1.793-1.323 4.334-3.11 5.385-2.066 1.214-5.853-1.35-7.17.656-2.33 3.547.705 9.054-1.568 12.641-1.315 2.075-4.833 1.691-7.258 1.293-3.43-.564-6.81-2.004-9.606-4.068-.662-.487 1.925-2.152 1.105-2.213-2.871-.218-7.31-.974-8.49 1.657-1.443 3.225 3.934 6.647 3.222 10.109-.497 2.412-5.188 1.843-6.147 4.114-1.375 3.257.982 7.235-.074 10.608-.328 1.046-1.623-2.41-2.633-1.984-3.041 1.284-6.27 3.315-7.64 6.321-1.312 2.884 1.547 6.537.437 9.507-.878 2.352-4.672 2.577-5.792 4.828-.958 1.925-.616 4.455.178 6.456 5.5 13.855 10.971 27.858 18.537 40.704 1.024 1.739 4.462-.392 5.985.93 1.966 1.706 2.183 4.73 3.272 7.095-2.103 1.034-5.996.781-6.315 3.103-.7 5.106 5.986 10.31 3.824 14.991-1.436 3.11-7.511-3.256-10.218-1.155-2.714 2.107 1.55 8.54-1.452 10.212-2.754 1.534-5.037-4.141-8.1-4.887-1.275-.31-3.382.799-3.336 2.11.141 4.027 3.591 7.462 3.798 11.486.24 4.63 1.45 11.273-2.508 13.685-5.268 3.21-12.605-2.702-18.501-.874-3.197.992-2.268 7.857-5.58 8.353-4.71.706-8.45-4.928-13.174-5.545-1.256-.163.205 3.103-.917 3.7-2.434 1.298-5.451 1.384-8.2 1.161-6.292-.51-12.478-1.997-18.651-3.341-2.502-.546-4.805-2.755-7.326-2.318-2.936.508-6.457 2.091-7.495 4.887-1.158 3.12 4.017 7.099 2.046 9.782-1.65 2.248-5.77-2.525-8.273-1.297-1.48.727 2.344 3.85 1.032 4.856-4.64 3.557-11.633 3.107-16.192 6.773-2.368 1.904-1.05 6.273-2.97 8.637-1.09 1.343-3.555 2.109-5.042 1.23-2.698-1.593-2.606-8.368-5.622-7.534-5.8 1.603-7.382 10.227-12.887 12.66-4.946 2.187-11.036 1.717-16.236.218-1.61-.463 1-5.981-.362-5.01-5.302 3.778-7.35 11.383-13.04 14.563-3.904 2.182-9.165-1.136-13.421.239-4.4 1.42-9.333 3.707-11.47 7.806-1.997 3.83 2 8.853.633 12.953-.495 1.485-3.38-2.776-4.427-1.609-1.877 2.093.645 6.57-1.58 8.298-2.08 1.615-5.453-2.084-7.842-.982-2.186 1.009-2.397 4.18-3.598 6.273-2.137 1.23-4.15 4.663-6.412 3.688-2.893-1.25-1.447-7.318-4.42-8.36-2.162-.758-2.153 5.288-4.442 5.25-1.893-.033-.277-4.37-1.89-5.358-1.453-.886-3.325.77-4.988 1.156-1.757-3.028-2.49-6.968-5.275-9.082-2.609-1.979-7.487.322-9.581-2.194-1.27-1.528 2.667-3.57 4.645-3.744 2.42-.211 5.173 4.597 6.754 2.754 1.582-1.843-3.744-3.833-3.738-6.261.004-1.252 2.807.843 3.76.031 1.018-.867 1.191-2.645.826-3.927-1.19-4.171-2.796-8.358-5.337-11.873-.915-1.266-3.897-.135-4.412-1.613-.487-1.397 3.069-2.218 2.582-3.614-1.004-2.877-5.273-3.823-6.19-6.728-.403-1.274 3.05-.851 3.39-2.139.655-2.474.433-5.399-.793-7.643-.629-1.15-3.927.47-3.853-.841.383-6.732 5.119-12.856 5.024-19.597-.046-3.21-2.25-7.423-5.41-7.97-6.48-1.122-12.833 3.26-19.402 3.659-1.796.11-4.388-.474-4.945-2.19-.921-2.839 3.539-6.829 1.352-8.858-4.083-3.788-10.488-4.143-16.026-4.754-3.222-.355-6.354 2.534-9.538 1.921-2.395-.46-3.671-3.216-5.506-4.822z" clip-rule="evenodd" fill="#c9c9c9" fill-rule="evenodd" image-rendering="optimizeQuality" shape-rendering="geometricPrecision" stroke="#fff" stroke-linejoin="bevel" stroke-width="2.594"/><rect x="1010.3" y="744.25" width="5.436" height="14.571" rx="1.636" ry="1.636" clip-rule="evenodd" fill="#fff" fill-rule="evenodd" image-rendering="optimizeQuality" shape-rendering="geometricPrecision" stroke="#0f0" stroke-opacity=".01" stroke-width=".265" paint-order="stroke fill markers"/><rect transform="matrix(0 1 1 0 0 0)" x="691.88" y="1075.5" width="3.058" height="8.98" rx="1.008" ry="1.008" clip-rule="evenodd" fill="#fff" fill-rule="evenodd" image-rendering="optimizeQuality" shape-rendering="geometricPrecision" stroke="#0f0" stroke-opacity=".01" stroke-width=".156" paint-order="stroke fill markers"/><rect x="1079.4" y="694.35" width="10.873" height="11.513" rx="1.292" ry="1.292" clip-rule="evenodd" fill="#fff" fill-rule="evenodd" image-rendering="optimizeQuality" shape-rendering="geometricPrecision" stroke="#0f0" stroke-opacity=".01" stroke-width=".333" paint-order="stroke fill markers"/></svg>